<mxfile host="Electron" modified="2024-01-08T16:07:42.825Z" agent="Mozilla/5.0 (Windows NT 10.0; Win64; x64) AppleWebKit/537.36 (KHTML, like Gecko) draw.io/22.1.16 Chrome/120.0.6099.109 Electron/28.1.0 Safari/537.36" etag="uETu0E02yNI7Lk4njeg_" compressed="false" version="22.1.16" type="device">
  <diagram id="9zJ72fLUXO1Tqudbw8W7" name="Page-1">
    <mxGraphModel dx="1434" dy="836" grid="1" gridSize="10" guides="1" tooltips="1" connect="1" arrows="1" fold="1" page="1" pageScale="1" pageWidth="850" pageHeight="1100" math="0" shadow="0">
      <root>
        <object tooltip="" id="0">
          <ag_global_attributes>
            <ag_global_attribute name="Resources" value="" iconName="hammer" min="0" max="5" />
            <ag_global_attribute name="Knowledge" value="" iconName="lightbulb" min="0" max="5" />
            <ag_global_attribute name="Location" value="" iconName="map_pin_ellipse" min="0" max="1" />
            <ag_global_attribute name="Impact" value="" iconName="flame" min="0" max="5" />
          </ag_global_attributes>
          <ag_attributes />
          <ag_computed_attributes />
          <ag_aggregation_functions>
            <ag_aggregation_function name="default" id="6b1d22791hih8" default="activity_w;link" fn="function (collection) { &#10;    var result = null; &#10;    if (collection.childAttributes.length == 1) { &#10;        result = collection.childAttributes[0].attributes;&#10;        result._marking = collection.childAttributes[0].id;&#10;    } else { &#10;        var candidates = []; &#10;        var worstValue = 0; &#10;        collection.childAttributes.forEach(function(child) { &#10;            var value = parseInt(child.computedAttribute); &#10;            if (value &gt; worstValue) { &#10;                worstValue = value; &#10;                candidates = []; &#10;                candidates.push(child); &#10;            } else if (value == worstValue) { &#10;                candidates.push(child); &#10;            } &#10;        }); &#10;        var tiebreaker = function(candidates, name, max) { &#10;            var min_value = max; &#10;            candidates.forEach(function(node) { &#10;                min_value = Math.min(min_value, node.attributes[name]); &#10;            }); &#10;            result = []; &#10;            candidates.forEach(function(node) { &#10;                if (node.attributes[name] == min_value) { &#10;                    result.push(node); &#10;                } &#10;            }); &#10;            return result; &#10;        }; &#10;        if (candidates.length &gt; 1) { &#10;            candidates = tiebreaker(candidates, &quot;Resources&quot;, collection.globalAttributes[&quot;Resources&quot;].max); &#10;            if (candidates.length &gt; 1) { &#10;                candidates = tiebreaker(candidates, &quot;Knowledge&quot;, collection.globalAttributes[&quot;Knowledge&quot;].max); &#10;            } &#10;        } &#10;        result = candidates[0].attributes;&#10;        result._marking = candidates[0].id;&#10;    } &#10;    return result; &#10;}" />
            <ag_aggregation_function name="AND" id="gf0d4f199018" default="and" fn="function (collection) { &#10;    var result = {}; &#10;    var ids = [];&#10;    collection.childAttributes.forEach(function(child) { &#10;    for (var attribute in child.attributes) { &#10;            if (attribute in result) { &#10;                result[attribute] += parseInt(child.attributes[attribute]); &#10;            } else { &#10;                result[attribute] = parseInt(child.attributes[attribute]); &#10;            } &#10;        }&#10;        ids.push(child.id);&#10;    }); &#10;    for (var attribute in result) { &#10;        if (attribute in collection.globalAttributes) { &#10;            result[attribute] = Math.min(collection.globalAttributes[attribute].max, result[attribute]); &#10;        } &#10;    }&#10;    result._marking = ids.join(&quot;;&quot;);&#10;    return result; &#10;}" />
            <ag_aggregation_function name="Security Control" id="73f575i0ghij5" default="activity_g;activity_y" fn="function (collection) { &#10;    var result = {}; &#10;    for (var attribute in collection.localAttributes) { &#10;        result[attribute] = parseInt(collection.localAttributes[attribute]); &#10;    } &#10;    collection.childAttributes.forEach(function(child) { &#10;        for (var attribute in child.attributes) { &#10;            if (attribute in collection.globalAttributes) { &#10;                if (attribute in result) { &#10;                    result[attribute] += parseInt(child.attributes[attribute]); &#10;                } &#10;            } &#10;        } &#10;    }); &#10;    for (var attribute in result) { &#10;        if (attribute in collection.globalAttributes) { &#10;            result[attribute] = Math.min(collection.globalAttributes[attribute].max, result[attribute]); &#10;        } &#10;    } &#10;    return result; &#10;}" />
            <ag_aggregation_function name="Risk" id="egf49jfgj408" default="consequence" fn="function (collection) {  &#10;    var maxRisk = &quot;L&quot;; &#10;    var matrix = [ &#10;        [&quot;L&quot;, &quot;L&quot;, &quot;L&quot;, &quot;L&quot;, &quot;L&quot;], &#10;        [&quot;L&quot;, &quot;L&quot;, &quot;M&quot;, &quot;M&quot;, &quot;M&quot;], &#10;        [&quot;L&quot;, &quot;M&quot;, &quot;M&quot;, &quot;S&quot;, &quot;S&quot;], &#10;        [&quot;L&quot;, &quot;M&quot;, &quot;S&quot;, &quot;V&quot;, &quot;V&quot;], &#10;        [&quot;L&quot;, &quot;M&quot;, &quot;S&quot;, &quot;V&quot;, &quot;V&quot;], &#10;    ];&#10;    ids = [];&#10; &#10;    var compareRisk = function(risk1, risk2) { &#10;        /*&#10;        * Returns:&#10;        *  - Null: if one of the parameters is not a character representing a risk&#10;        *  - Negativ integer: if risk1 &lt; risk2&#10;        *  - Zero: if risks are equal&#10;        *  - Positive integer: if risk1 &gt; risk2&#10;        */&#10;        var values = [&quot;L&quot;, &quot;M&quot;, &quot;S&quot;, &quot;V&quot;]; &#10;        var index_risk1 = values.indexOf(risk1); &#10;        var index_risk2 = values.indexOf(risk2); &#10; &#10;        if (index_risk1 == -1 || index_risk2 == -1) { &#10;            return null; &#10;        } &#10;        return index_risk1 - index_risk2; &#10; &#10;    } &#10;     &#10;    collection.childAttributes.forEach(function(child) {  &#10;        var impact = 1;  &#10;        if (child.edgeWeight !== null) {  &#10;            impact = parseInt(child.edgeWeight);  &#10;        }&#10;        var _impact = parseInt(child.attributes._impact) || 0;&#10;        impact = Math.max(impact - _impact, 1);&#10;        var af = parseInt(child.computedAttribute) || parseInt(child.attributes._af);&#10;        risk = matrix[af - 1][impact - 1];&#10;        result = compareRisk(risk, maxRisk);&#10;        if (result &gt; 0) { &#10;            maxRisk = risk;&#10;            ids = [child.id];&#10;        } else if (result == 0){&#10;            ids.push(child.id);&#10;        }&#10;    });  &#10;  &#10;    return {'_risk': maxRisk, &quot;_marking&quot;: ids.join(&quot;;&quot;)};  &#10;}" />
            <ag_aggregation_function name="Impact" id="397423adceb0f" default="" fn="function(collection) {&#10;    var impact = 0;&#10;    var result = {}&#10;    &#10;    collection.childAttributes.forEach(function(child) {&#10;        if (&quot;Impact&quot; in child.attributes) {&#10;            impact += parseInt(child.attributes[&quot;Impact&quot;]);&#10;        } else if (&quot;Resources&quot; in child.attributes &amp;&amp; &quot;Knowledge&quot; in child.attributes &amp;&amp; &quot;Location&quot; in child.attributes) {&#10;            result._af = child.computedAttribute&#10;            result._marking = child.id;&#10;        }&#10;    });&#10;    result._impact = Math.min(impact, collection.globalAttributes[&quot;Impact&quot;].max);&#10;    &#10;    return result;&#10;}" />
          </ag_aggregation_functions>
          <ag_computed_attributes_functions>
            <ag_computed_attributes_function name="default" id="dbg60ff69g9a" default="activity_w;activity_g;activity_y" fn="function (collection) { &#10;    var colorMatrix = {&#10;        5: {&quot;fillColor&quot;: &quot;#cc0000&quot;, &quot;fontColor&quot;: &quot;#ffffff&quot;},&#10;        4: {&quot;fillColor&quot;: &quot;#ff4000&quot;, &quot;fontColor&quot;: &quot;#ffffff&quot;},&#10;        3: {&quot;fillColor&quot;: &quot;#ffdd00&quot;, &quot;fontColor&quot;: &quot;#000000&quot;},&#10;        2: {&quot;fillColor&quot;: &quot;#d4ff00&quot;, &quot;fontColor&quot;: &quot;#000000&quot;},&#10;        1: {&quot;fillColor&quot;: &quot;#40ff00&quot;, &quot;fontColor&quot;: &quot;#000000&quot;}&#10;    }&#10;    var matrix = [ &#10;        [5, 5, 4, 3, 2], &#10;        [5, 4, 4, 3, 2], &#10;        [5, 4, 4, 3, 2], &#10;        [4, 3, 3, 2, 1], &#10;        [3, 2, 2, 1, 1], &#10;    ];&#10;    var result = {};&#10;    &#10;    if (&quot;Knowledge&quot; in collection.cellAttributes &amp;&amp; &quot;Resources&quot; in collection.cellAttributes) {&#10;        var knowledgeIndex = parseInt(collection.cellAttributes[&quot;Knowledge&quot;]) - 1; &#10;        var resourcesIndex = parseInt(collection.cellAttributes[&quot;Resources&quot;]) - 1;&#10;        &#10;        var value = Math.min(5, &#10;            Math.max(collection.globalAttributes[&quot;Location&quot;].max, &#10;                Math.max( matrix[knowledgeIndex][resourcesIndex] - parseInt(collection.cellAttributes[&quot;Location&quot;])) &#10;            ));&#10;        result = colorMatrix[value] || result;&#10;        result[&quot;value&quot;] = value;&#10;    }&#10;    &#10;    return result;&#10;}" />
            <ag_computed_attributes_function name="Risk" id="6c831697g9i0a" default="" fn="function(collection){&#10;    var riskMatrix = {&#10;        &quot;V&quot;: {&quot;fillColor&quot;: &quot;#cc0000&quot;, &quot;fontColor&quot;: &quot;#ffffff&quot;},&#10;        &quot;S&quot;: {&quot;fillColor&quot;: &quot;#ff4000&quot;, &quot;fontColor&quot;: &quot;#ffffff&quot;},&#10;        &quot;M&quot;: {&quot;fillColor&quot;: &quot;#ffdd00&quot;, &quot;fontColor&quot;: &quot;#000000&quot;},&#10;        &quot;L&quot;: {&quot;fillColor&quot;: &quot;#40ff00&quot;, &quot;fontColor&quot;: &quot;#000000&quot;},&#10;    };&#10;    var result = {};&#10;    &#10;    if (&quot;_risk&quot; in collection.cellAttributes) {&#10;        var risk = collection.cellAttributes[&quot;_risk&quot;];&#10;        result = riskMatrix[risk] || result;&#10;        result[&quot;value&quot;] = risk;&#10;    }&#10;    &#10;    return result; &#10;}" />
          </ag_computed_attributes_functions>
          <mxCell />
        </object>
        <object id="1">
          <ag_attributes />
          <ag_computed_attributes />
          <mxCell parent="0" />
        </object>
        <object label="Attack Target&#10;Steering Action for Scheduling" id="Uiwz3RxvrwPI8K2oxm7w-8">
          <ag_attributes />
          <ag_computed_attributes />
          <mxCell style="whiteSpace=wrap;shape=trapezoid;size=0.075;" parent="1" vertex="1">
            <mxGeometry x="1700" y="80" width="224" height="60" as="geometry" />
          </mxCell>
        </object>
        <object id="Uiwz3RxvrwPI8K2oxm7w-62">
          <ag_attributes />
          <ag_computed_attributes />
          <mxCell style="edgeStyle=none;rounded=0;orthogonalLoop=1;jettySize=auto;html=1;strokeWidth=2;strokeColor=#000000;verticalAlign=top;spacingRight=20;" parent="1" source="Uiwz3RxvrwPI8K2oxm7w-9" target="Uiwz3RxvrwPI8K2oxm7w-44" edge="1">
            <mxGeometry relative="1" as="geometry" />
          </mxCell>
        </object>
        <object id="Uiwz3RxvrwPI8K2oxm7w-63">
          <ag_attributes />
          <ag_computed_attributes />
          <mxCell style="edgeStyle=none;rounded=0;orthogonalLoop=1;jettySize=auto;html=1;strokeWidth=2;strokeColor=#000000;verticalAlign=top;spacingRight=20;" parent="1" source="Uiwz3RxvrwPI8K2oxm7w-9" target="Uiwz3RxvrwPI8K2oxm7w-45" edge="1">
            <mxGeometry relative="1" as="geometry" />
          </mxCell>
        </object>
        <object id="Uiwz3RxvrwPI8K2oxm7w-64">
          <ag_attributes />
          <ag_computed_attributes />
          <mxCell style="edgeStyle=none;rounded=0;orthogonalLoop=1;jettySize=auto;html=1;strokeWidth=2;strokeColor=#000000;verticalAlign=top;spacingRight=20;" parent="1" source="Uiwz3RxvrwPI8K2oxm7w-9" target="Uiwz3RxvrwPI8K2oxm7w-46" edge="1">
            <mxGeometry relative="1" as="geometry" />
          </mxCell>
        </object>
        <object label="Force train collision" id="Uiwz3RxvrwPI8K2oxm7w-9">
          <ag_attributes label="Fälschung ortsfester Referenzpunkte" Resources="4" Knowledge="4" Location="1" _marking="Uiwz3RxvrwPI8K2oxm7w-44" />
          <ag_computed_attributes fillColor="#40ff00" fontColor="#000000" value="1" />
          <ag_computed_attributes_function_reference ag_computed_attributes_function_reference="dbg60ff69g9a" />
          <ag_aggregation_function_reference ag_aggregation_function_reference="6b1d22791hih8" />
          <mxCell style="verticalAlign=top;align=center;fillColor=#FFFFFF;gradientColor=none;labelBackgroundColor=none;rounded=0;whiteSpace=wrap;shape=attackgraphs.node;spacingRight=20;" parent="1" vertex="1">
            <mxGeometry x="2110" y="320" width="180" height="48" as="geometry" />
          </mxCell>
        </object>
        <object id="Uiwz3RxvrwPI8K2oxm7w-57">
          <ag_attributes />
          <ag_computed_attributes />
          <mxCell style="edgeStyle=none;rounded=0;orthogonalLoop=1;jettySize=auto;html=1;strokeWidth=2;strokeColor=#000000;verticalAlign=top;spacingRight=20;" parent="1" source="Uiwz3RxvrwPI8K2oxm7w-10" target="Uiwz3RxvrwPI8K2oxm7w-47" edge="1">
            <mxGeometry relative="1" as="geometry" />
          </mxCell>
        </object>
        <object id="Uiwz3RxvrwPI8K2oxm7w-58">
          <ag_attributes />
          <ag_computed_attributes />
          <mxCell style="edgeStyle=none;rounded=0;orthogonalLoop=1;jettySize=auto;html=1;strokeWidth=2;strokeColor=#000000;verticalAlign=top;spacingRight=20;" parent="1" source="Uiwz3RxvrwPI8K2oxm7w-10" target="Uiwz3RxvrwPI8K2oxm7w-48" edge="1">
            <mxGeometry relative="1" as="geometry" />
          </mxCell>
        </object>
        <object id="Uiwz3RxvrwPI8K2oxm7w-59">
          <ag_attributes />
          <ag_computed_attributes />
          <mxCell style="edgeStyle=none;rounded=0;orthogonalLoop=1;jettySize=auto;html=1;strokeWidth=2;strokeColor=#000000;verticalAlign=top;spacingRight=20;" parent="1" source="Uiwz3RxvrwPI8K2oxm7w-10" target="Uiwz3RxvrwPI8K2oxm7w-46" edge="1">
            <mxGeometry relative="1" as="geometry" />
          </mxCell>
        </object>
        <object id="Uiwz3RxvrwPI8K2oxm7w-60">
          <ag_attributes />
          <ag_computed_attributes />
          <mxCell style="edgeStyle=none;rounded=0;orthogonalLoop=1;jettySize=auto;html=1;strokeWidth=2;strokeColor=#000000;verticalAlign=top;spacingRight=20;" parent="1" source="Uiwz3RxvrwPI8K2oxm7w-10" target="Uiwz3RxvrwPI8K2oxm7w-45" edge="1">
            <mxGeometry relative="1" as="geometry" />
          </mxCell>
        </object>
        <object id="Uiwz3RxvrwPI8K2oxm7w-61">
          <ag_attributes />
          <ag_computed_attributes />
          <mxCell style="edgeStyle=none;rounded=0;orthogonalLoop=1;jettySize=auto;html=1;strokeWidth=2;strokeColor=#000000;verticalAlign=top;spacingRight=20;" parent="1" source="Uiwz3RxvrwPI8K2oxm7w-10" target="Uiwz3RxvrwPI8K2oxm7w-44" edge="1">
            <mxGeometry relative="1" as="geometry" />
          </mxCell>
        </object>
        <object label="Provoke delay" id="Uiwz3RxvrwPI8K2oxm7w-10">
          <ag_attributes label="Spoofing der digitalen Zugschlussscheibe" Resources="4" Knowledge="4" Location="1" _marking="Uiwz3RxvrwPI8K2oxm7w-46" />
          <ag_computed_attributes fillColor="#40ff00" fontColor="#000000" value="1" />
          <ag_computed_attributes_function_reference ag_computed_attributes_function_reference="dbg60ff69g9a" />
          <ag_aggregation_function_reference ag_aggregation_function_reference="6b1d22791hih8" />
          <mxCell style="verticalAlign=top;align=center;fillColor=#FFFFFF;gradientColor=none;labelBackgroundColor=none;rounded=0;whiteSpace=wrap;shape=attackgraphs.node;spacingRight=20;" parent="1" vertex="1">
            <mxGeometry x="1500" y="320" width="180" height="48" as="geometry" />
          </mxCell>
        </object>
        <object id="Uiwz3RxvrwPI8K2oxm7w-52">
          <ag_attributes />
          <ag_computed_attributes />
          <mxCell style="edgeStyle=none;rounded=0;orthogonalLoop=1;jettySize=auto;html=1;strokeWidth=2;strokeColor=#000000;verticalAlign=top;spacingRight=20;" parent="1" source="Uiwz3RxvrwPI8K2oxm7w-11" target="Uiwz3RxvrwPI8K2oxm7w-47" edge="1">
            <mxGeometry relative="1" as="geometry" />
          </mxCell>
        </object>
        <object id="Uiwz3RxvrwPI8K2oxm7w-53">
          <ag_attributes />
          <ag_computed_attributes />
          <mxCell style="edgeStyle=none;rounded=0;orthogonalLoop=1;jettySize=auto;html=1;strokeWidth=2;strokeColor=#000000;verticalAlign=top;spacingRight=20;" parent="1" source="Uiwz3RxvrwPI8K2oxm7w-11" target="Uiwz3RxvrwPI8K2oxm7w-48" edge="1">
            <mxGeometry relative="1" as="geometry" />
          </mxCell>
        </object>
        <object id="Uiwz3RxvrwPI8K2oxm7w-56">
          <ag_attributes />
          <ag_computed_attributes />
          <mxCell style="edgeStyle=none;rounded=0;orthogonalLoop=1;jettySize=auto;html=1;strokeWidth=2;strokeColor=#000000;verticalAlign=top;spacingRight=20;" parent="1" source="Uiwz3RxvrwPI8K2oxm7w-11" target="Uiwz3RxvrwPI8K2oxm7w-44" edge="1">
            <mxGeometry relative="1" as="geometry" />
          </mxCell>
        </object>
        <object label="Incite Chaos" id="Uiwz3RxvrwPI8K2oxm7w-11">
          <ag_attributes label="Fälschung ortsfester Referenzpunkte" Resources="4" Knowledge="4" Location="1" _marking="Uiwz3RxvrwPI8K2oxm7w-44" />
          <ag_computed_attributes fillColor="#40ff00" fontColor="#000000" value="1" />
          <ag_computed_attributes_function_reference ag_computed_attributes_function_reference="dbg60ff69g9a" />
          <ag_aggregation_function_reference ag_aggregation_function_reference="6b1d22791hih8" />
          <mxCell style="verticalAlign=top;align=center;fillColor=#FFFFFF;gradientColor=none;labelBackgroundColor=none;rounded=0;whiteSpace=wrap;shape=attackgraphs.node;spacingRight=20;" parent="1" vertex="1">
            <mxGeometry x="1190" y="320" width="180" height="48" as="geometry" />
          </mxCell>
        </object>
        <object label="3" id="Uiwz3RxvrwPI8K2oxm7w-31">
          <ag_attributes />
          <ag_computed_attributes />
          <mxCell style="edgeStyle=none;rounded=0;orthogonalLoop=1;jettySize=auto;html=1;strokeWidth=2;strokeColor=#000000;fontSize=15;" parent="1" source="Uiwz3RxvrwPI8K2oxm7w-13" target="Uiwz3RxvrwPI8K2oxm7w-10" edge="1">
            <mxGeometry relative="1" as="geometry" />
          </mxCell>
        </object>
        <object label="4" id="Uiwz3RxvrwPI8K2oxm7w-32">
          <ag_attributes />
          <ag_computed_attributes />
          <mxCell style="edgeStyle=none;rounded=0;orthogonalLoop=1;jettySize=auto;html=1;strokeWidth=2;strokeColor=#000000;fontSize=15;" parent="1" source="Uiwz3RxvrwPI8K2oxm7w-13" target="Uiwz3RxvrwPI8K2oxm7w-9" edge="1">
            <mxGeometry relative="1" as="geometry" />
          </mxCell>
        </object>
        <object label="Financial Damage&#10;Operator" id="Uiwz3RxvrwPI8K2oxm7w-13">
          <ag_attributes _risk="L" _marking="Uiwz3RxvrwPI8K2oxm7w-10;Uiwz3RxvrwPI8K2oxm7w-9" />
          <ag_computed_attributes fillColor="#40ff00" fontColor="#000000" value="L" />
          <ag_aggregation_function_reference ag_aggregation_function_reference="egf49jfgj408" />
          <ag_computed_attributes_function_reference ag_computed_attributes_function_reference="6c831697g9i0a" />
          <mxCell style="verticalAlign=middle;align=center;fillColor=#FFFFFF;gradientColor=none;labelBackgroundColor=none;rounded=1;whiteSpace=wrap;shape=attackgraphs.node;" parent="1" vertex="1">
            <mxGeometry x="1910" y="190" width="180" height="48" as="geometry" />
          </mxCell>
        </object>
        <object label="5" id="Uiwz3RxvrwPI8K2oxm7w-23">
          <ag_attributes />
          <ag_computed_attributes />
          <mxCell style="rounded=0;orthogonalLoop=1;jettySize=auto;html=1;exitX=0.5;exitY=1;exitDx=0;exitDy=0;entryX=0.5;entryY=0;entryDx=0;entryDy=0;strokeWidth=2;strokeColor=#000000;fontSize=15;" parent="1" source="Uiwz3RxvrwPI8K2oxm7w-14" target="Uiwz3RxvrwPI8K2oxm7w-9" edge="1">
            <mxGeometry relative="1" as="geometry" />
          </mxCell>
        </object>
        <object label="Violation of Physical Integrity" id="Uiwz3RxvrwPI8K2oxm7w-14">
          <ag_attributes _risk="L" _marking="Uiwz3RxvrwPI8K2oxm7w-9" />
          <ag_computed_attributes fillColor="#40ff00" fontColor="#000000" value="L" />
          <ag_aggregation_function_reference ag_aggregation_function_reference="egf49jfgj408" />
          <ag_computed_attributes_function_reference ag_computed_attributes_function_reference="6c831697g9i0a" />
          <mxCell style="verticalAlign=middle;align=center;fillColor=#FFFFFF;gradientColor=none;labelBackgroundColor=none;rounded=1;whiteSpace=wrap;shape=attackgraphs.node;" parent="1" vertex="1">
            <mxGeometry x="2140" y="190" width="180" height="48" as="geometry" />
          </mxCell>
        </object>
        <object label="2" id="Uiwz3RxvrwPI8K2oxm7w-30">
          <ag_attributes />
          <ag_computed_attributes />
          <mxCell style="edgeStyle=none;rounded=0;orthogonalLoop=1;jettySize=auto;html=1;strokeWidth=2;strokeColor=#000000;fontSize=15;" parent="1" source="Uiwz3RxvrwPI8K2oxm7w-15" target="Uiwz3RxvrwPI8K2oxm7w-10" edge="1">
            <mxGeometry relative="1" as="geometry" />
          </mxCell>
        </object>
        <object label="3" id="Uiwz3RxvrwPI8K2oxm7w-54">
          <ag_attributes />
          <ag_computed_attributes />
          <mxCell style="edgeStyle=none;rounded=0;orthogonalLoop=1;jettySize=auto;html=1;strokeWidth=2;strokeColor=#000000;fontSize=15;" parent="1" source="Uiwz3RxvrwPI8K2oxm7w-15" target="Uiwz3RxvrwPI8K2oxm7w-11" edge="1">
            <mxGeometry relative="1" as="geometry" />
          </mxCell>
        </object>
        <object label="Disruption of a Critical Service" id="Uiwz3RxvrwPI8K2oxm7w-15">
          <ag_attributes _risk="L" _marking="Uiwz3RxvrwPI8K2oxm7w-10;Uiwz3RxvrwPI8K2oxm7w-11" />
          <ag_computed_attributes fillColor="#40ff00" fontColor="#000000" value="L" />
          <ag_computed_attributes_function_reference ag_computed_attributes_function_reference="6c831697g9i0a" />
          <ag_aggregation_function_reference ag_aggregation_function_reference="egf49jfgj408" />
          <mxCell style="verticalAlign=middle;align=center;fillColor=#FFFFFF;gradientColor=none;labelBackgroundColor=none;rounded=1;whiteSpace=wrap;shape=attackgraphs.node;" parent="1" vertex="1">
            <mxGeometry x="1180" y="190" width="180" height="48" as="geometry" />
          </mxCell>
        </object>
        <object label="2" id="Uiwz3RxvrwPI8K2oxm7w-33">
          <ag_attributes />
          <ag_computed_attributes />
          <mxCell style="edgeStyle=none;rounded=0;orthogonalLoop=1;jettySize=auto;html=1;strokeWidth=2;strokeColor=#000000;fontSize=15;" parent="1" source="Uiwz3RxvrwPI8K2oxm7w-16" target="Uiwz3RxvrwPI8K2oxm7w-11" edge="1">
            <mxGeometry relative="1" as="geometry" />
          </mxCell>
        </object>
        <object label="2" id="Uiwz3RxvrwPI8K2oxm7w-34">
          <ag_attributes />
          <ag_computed_attributes />
          <mxCell style="edgeStyle=none;rounded=0;orthogonalLoop=1;jettySize=auto;html=1;strokeWidth=2;strokeColor=#000000;fontSize=15;" parent="1" source="Uiwz3RxvrwPI8K2oxm7w-16" target="Uiwz3RxvrwPI8K2oxm7w-10" edge="1">
            <mxGeometry relative="1" as="geometry" />
          </mxCell>
        </object>
        <object label="2" id="Uiwz3RxvrwPI8K2oxm7w-35">
          <ag_attributes />
          <ag_computed_attributes />
          <mxCell style="edgeStyle=none;rounded=0;orthogonalLoop=1;jettySize=auto;html=1;strokeWidth=2;strokeColor=#000000;fontSize=15;" parent="1" source="Uiwz3RxvrwPI8K2oxm7w-16" target="Uiwz3RxvrwPI8K2oxm7w-18" edge="1">
            <mxGeometry relative="1" as="geometry" />
          </mxCell>
        </object>
        <object label="Reputational Damage Operator" id="Uiwz3RxvrwPI8K2oxm7w-16">
          <ag_attributes _risk="L" _marking="Uiwz3RxvrwPI8K2oxm7w-11;Uiwz3RxvrwPI8K2oxm7w-10;Uiwz3RxvrwPI8K2oxm7w-18" />
          <ag_computed_attributes fillColor="#40ff00" fontColor="#000000" value="L" />
          <ag_aggregation_function_reference ag_aggregation_function_reference="egf49jfgj408" />
          <ag_computed_attributes_function_reference ag_computed_attributes_function_reference="6c831697g9i0a" />
          <mxCell style="verticalAlign=middle;align=center;fillColor=#FFFFFF;gradientColor=none;labelBackgroundColor=none;rounded=1;whiteSpace=wrap;shape=attackgraphs.node;" parent="1" vertex="1">
            <mxGeometry x="1400" y="190" width="213" height="48" as="geometry" />
          </mxCell>
        </object>
        <object id="Uiwz3RxvrwPI8K2oxm7w-49">
          <ag_attributes />
          <ag_computed_attributes />
          <mxCell style="edgeStyle=none;rounded=0;orthogonalLoop=1;jettySize=auto;html=1;strokeWidth=2;strokeColor=#000000;verticalAlign=top;spacingRight=20;" parent="1" source="Uiwz3RxvrwPI8K2oxm7w-18" target="Uiwz3RxvrwPI8K2oxm7w-44" edge="1">
            <mxGeometry relative="1" as="geometry" />
          </mxCell>
        </object>
        <object id="Uiwz3RxvrwPI8K2oxm7w-50">
          <ag_attributes />
          <ag_computed_attributes />
          <mxCell style="edgeStyle=none;rounded=0;orthogonalLoop=1;jettySize=auto;html=1;strokeWidth=2;strokeColor=#000000;verticalAlign=top;spacingRight=20;" parent="1" source="Uiwz3RxvrwPI8K2oxm7w-18" target="Uiwz3RxvrwPI8K2oxm7w-45" edge="1">
            <mxGeometry relative="1" as="geometry" />
          </mxCell>
        </object>
        <object id="Uiwz3RxvrwPI8K2oxm7w-51">
          <ag_attributes />
          <ag_computed_attributes />
          <mxCell style="edgeStyle=none;rounded=0;orthogonalLoop=1;jettySize=auto;html=1;strokeWidth=2;strokeColor=#000000;verticalAlign=top;spacingRight=20;" parent="1" source="Uiwz3RxvrwPI8K2oxm7w-18" target="Uiwz3RxvrwPI8K2oxm7w-46" edge="1">
            <mxGeometry relative="1" as="geometry" />
          </mxCell>
        </object>
        <object label="Manipulate Travel Route" id="Uiwz3RxvrwPI8K2oxm7w-18">
          <ag_attributes label="Fälschung ortsfester Referenzpunkte" Resources="4" Knowledge="4" Location="1" _marking="Uiwz3RxvrwPI8K2oxm7w-44" />
          <ag_computed_attributes fillColor="#40ff00" fontColor="#000000" value="1" />
          <ag_computed_attributes_function_reference ag_computed_attributes_function_reference="dbg60ff69g9a" />
          <ag_aggregation_function_reference ag_aggregation_function_reference="6b1d22791hih8" />
          <mxCell style="verticalAlign=top;align=center;fillColor=#FFFFFF;gradientColor=none;labelBackgroundColor=none;rounded=0;whiteSpace=wrap;shape=attackgraphs.node;spacingRight=20;" parent="1" vertex="1">
            <mxGeometry x="1790" y="320" width="180" height="48" as="geometry" />
          </mxCell>
        </object>
        <object label="2" id="Uiwz3RxvrwPI8K2oxm7w-36">
          <ag_attributes />
          <ag_computed_attributes />
          <mxCell style="edgeStyle=none;rounded=0;orthogonalLoop=1;jettySize=auto;html=1;strokeWidth=2;strokeColor=#000000;fontSize=15;" parent="1" source="Uiwz3RxvrwPI8K2oxm7w-19" target="Uiwz3RxvrwPI8K2oxm7w-18" edge="1">
            <mxGeometry relative="1" as="geometry" />
          </mxCell>
        </object>
        <object label="Market manipulation to the disadvantage/advantage of a group" id="Uiwz3RxvrwPI8K2oxm7w-19">
          <ag_attributes _risk="L" _marking="Uiwz3RxvrwPI8K2oxm7w-18" />
          <ag_computed_attributes fillColor="#40ff00" fontColor="#000000" value="L" />
          <ag_aggregation_function_reference ag_aggregation_function_reference="egf49jfgj408" />
          <ag_computed_attributes_function_reference ag_computed_attributes_function_reference="6c831697g9i0a" />
          <mxCell style="verticalAlign=middle;align=center;fillColor=#FFFFFF;gradientColor=none;labelBackgroundColor=none;rounded=1;whiteSpace=wrap;shape=attackgraphs.node;" parent="1" vertex="1">
            <mxGeometry x="1660" y="190" width="200" height="48" as="geometry" />
          </mxCell>
        </object>
        <object id="1qkWPqTPLnTGLn8MYxJF-53">
          <ag_attributes />
          <ag_computed_attributes />
          <mxCell style="edgeStyle=none;rounded=0;orthogonalLoop=1;jettySize=auto;html=1;strokeWidth=2;strokeColor=#000000;verticalAlign=top;spacingRight=20;" parent="1" source="Uiwz3RxvrwPI8K2oxm7w-37" target="1qkWPqTPLnTGLn8MYxJF-52" edge="1">
            <mxGeometry relative="1" as="geometry">
              <mxPoint x="1557.1224242424246" y="758" as="sourcePoint" />
              <mxPoint x="1524.2941414141414" y="808" as="targetPoint" />
            </mxGeometry>
          </mxCell>
        </object>
        <object id="1qkWPqTPLnTGLn8MYxJF-56">
          <ag_attributes />
          <ag_computed_attributes />
          <mxCell style="edgeStyle=none;rounded=0;orthogonalLoop=1;jettySize=auto;html=1;strokeWidth=2;strokeColor=#000000;verticalAlign=top;spacingRight=20;" parent="1" source="Uiwz3RxvrwPI8K2oxm7w-37" target="1qkWPqTPLnTGLn8MYxJF-54" edge="1">
            <mxGeometry relative="1" as="geometry" />
          </mxCell>
        </object>
        <object id="1qkWPqTPLnTGLn8MYxJF-57">
          <ag_attributes />
          <ag_computed_attributes />
          <mxCell style="edgeStyle=none;rounded=0;orthogonalLoop=1;jettySize=auto;html=1;strokeWidth=2;strokeColor=#000000;verticalAlign=top;spacingRight=20;" parent="1" source="Uiwz3RxvrwPI8K2oxm7w-37" target="1qkWPqTPLnTGLn8MYxJF-55" edge="1">
            <mxGeometry relative="1" as="geometry" />
          </mxCell>
        </object>
        <object label="" id="1qkWPqTPLnTGLn8MYxJF-59">
          <ag_attributes />
          <ag_computed_attributes />
          <mxCell style="edgeStyle=none;rounded=0;orthogonalLoop=1;jettySize=auto;html=1;strokeWidth=2;strokeColor=#000000;verticalAlign=top;spacingRight=20;" parent="1" source="Uiwz3RxvrwPI8K2oxm7w-37" target="1qkWPqTPLnTGLn8MYxJF-55" edge="1">
            <mxGeometry relative="1" as="geometry" />
          </mxCell>
        </object>
        <object id="1qkWPqTPLnTGLn8MYxJF-60">
          <ag_attributes />
          <ag_computed_attributes />
          <mxCell style="edgeStyle=none;rounded=0;orthogonalLoop=1;jettySize=auto;html=1;strokeWidth=2;entryX=0.177;entryY=-0.017;entryDx=0;entryDy=0;entryPerimeter=0;strokeColor=#000000;verticalAlign=top;spacingRight=20;" parent="1" source="Uiwz3RxvrwPI8K2oxm7w-37" target="1qkWPqTPLnTGLn8MYxJF-58" edge="1">
            <mxGeometry relative="1" as="geometry">
              <mxPoint x="1769" y="790" as="targetPoint" />
            </mxGeometry>
          </mxCell>
        </object>
        <object id="1qkWPqTPLnTGLn8MYxJF-17">
          <ag_attributes />
          <ag_computed_attributes />
          <mxCell style="edgeStyle=none;rounded=0;orthogonalLoop=1;jettySize=auto;html=1;strokeWidth=2;strokeColor=#000000;verticalAlign=top;spacingRight=20;" parent="1" source="Uiwz3RxvrwPI8K2oxm7w-39" target="1qkWPqTPLnTGLn8MYxJF-15" edge="1">
            <mxGeometry relative="1" as="geometry" />
          </mxCell>
        </object>
        <object id="1qkWPqTPLnTGLn8MYxJF-18">
          <ag_attributes />
          <ag_computed_attributes />
          <mxCell style="edgeStyle=none;rounded=0;orthogonalLoop=1;jettySize=auto;html=1;strokeWidth=2;strokeColor=#000000;verticalAlign=top;spacingRight=20;entryX=0.447;entryY=0.027;entryDx=0;entryDy=0;entryPerimeter=0;" parent="1" source="Uiwz3RxvrwPI8K2oxm7w-39" target="1qkWPqTPLnTGLn8MYxJF-16" edge="1">
            <mxGeometry relative="1" as="geometry">
              <mxPoint x="910" y="780" as="targetPoint" />
            </mxGeometry>
          </mxCell>
        </object>
        <object label="Manipulation of the data stock (digital twin)" id="Uiwz3RxvrwPI8K2oxm7w-39">
          <ag_attributes label="NaN" Resources="4" Knowledge="5" Location="0" _marking="1qkWPqTPLnTGLn8MYxJF-16" />
          <ag_computed_attributes fillColor="#40ff00" fontColor="#000000" value="1" />
          <ag_computed_attributes_function_reference ag_computed_attributes_function_reference="dbg60ff69g9a" />
          <ag_aggregation_function_reference ag_aggregation_function_reference="6b1d22791hih8" />
          <mxCell style="verticalAlign=top;align=center;fillColor=#FFFFFF;gradientColor=none;labelBackgroundColor=none;rounded=0;whiteSpace=wrap;shape=attackgraphs.node;spacingRight=20;" parent="1" vertex="1">
            <mxGeometry x="760" y="680" width="210" height="60" as="geometry" />
          </mxCell>
        </object>
        <object id="1qkWPqTPLnTGLn8MYxJF-39">
          <ag_attributes />
          <ag_computed_attributes />
          <mxCell style="edgeStyle=none;rounded=0;orthogonalLoop=1;jettySize=auto;html=1;strokeWidth=2;strokeColor=#000000;verticalAlign=top;spacingRight=20;" parent="1" source="Uiwz3RxvrwPI8K2oxm7w-40" target="1qkWPqTPLnTGLn8MYxJF-36" edge="1">
            <mxGeometry relative="1" as="geometry" />
          </mxCell>
        </object>
        <object label="Manipulate Digital Map" id="Uiwz3RxvrwPI8K2oxm7w-40">
          <ag_attributes label="NaN" Resources="5" Knowledge="5" Location="0" _marking="1qkWPqTPLnTGLn8MYxJF-36" />
          <ag_computed_attributes fillColor="#40ff00" fontColor="#000000" value="1" />
          <ag_computed_attributes_function_reference ag_computed_attributes_function_reference="dbg60ff69g9a" />
          <ag_aggregation_function_reference ag_aggregation_function_reference="6b1d22791hih8" />
          <mxCell style="verticalAlign=top;align=center;fillColor=#FFFFFF;gradientColor=none;labelBackgroundColor=none;rounded=0;whiteSpace=wrap;shape=attackgraphs.node;spacingRight=20;" parent="1" vertex="1">
            <mxGeometry x="2910" y="680" width="180" height="60" as="geometry" />
          </mxCell>
        </object>
        <object id="1qkWPqTPLnTGLn8MYxJF-3">
          <ag_attributes />
          <ag_computed_attributes />
          <mxCell style="rounded=0;orthogonalLoop=1;jettySize=auto;html=1;strokeWidth=2;strokeColor=#000000;verticalAlign=top;spacingRight=20;" parent="1" source="Uiwz3RxvrwPI8K2oxm7w-41" target="1qkWPqTPLnTGLn8MYxJF-1" edge="1">
            <mxGeometry relative="1" as="geometry">
              <mxPoint x="990" y="770" as="sourcePoint" />
            </mxGeometry>
          </mxCell>
        </object>
        <object id="1qkWPqTPLnTGLn8MYxJF-4">
          <ag_attributes />
          <ag_computed_attributes />
          <mxCell style="edgeStyle=none;rounded=0;orthogonalLoop=1;jettySize=auto;html=1;strokeWidth=2;strokeColor=#000000;verticalAlign=top;spacingRight=20;" parent="1" source="Uiwz3RxvrwPI8K2oxm7w-41" target="1qkWPqTPLnTGLn8MYxJF-2" edge="1">
            <mxGeometry relative="1" as="geometry" />
          </mxCell>
        </object>
        <object id="1qkWPqTPLnTGLn8MYxJF-44">
          <ag_attributes />
          <ag_computed_attributes />
          <mxCell style="edgeStyle=none;rounded=0;orthogonalLoop=1;jettySize=auto;html=1;strokeWidth=2;strokeColor=#000000;verticalAlign=top;spacingRight=20;" parent="1" source="Uiwz3RxvrwPI8K2oxm7w-42" target="1qkWPqTPLnTGLn8MYxJF-43" edge="1">
            <mxGeometry relative="1" as="geometry" />
          </mxCell>
        </object>
        <object id="1qkWPqTPLnTGLn8MYxJF-45">
          <ag_attributes />
          <ag_computed_attributes />
          <mxCell style="edgeStyle=none;rounded=0;orthogonalLoop=1;jettySize=auto;html=1;strokeWidth=2;strokeColor=#000000;verticalAlign=top;spacingRight=20;" parent="1" source="Uiwz3RxvrwPI8K2oxm7w-42" target="1qkWPqTPLnTGLn8MYxJF-42" edge="1">
            <mxGeometry relative="1" as="geometry" />
          </mxCell>
        </object>
        <object label="Manipulate communication" id="Uiwz3RxvrwPI8K2oxm7w-42">
          <ag_attributes label="NaN" Resources="4" Knowledge="5" Location="1" _marking="1qkWPqTPLnTGLn8MYxJF-43" />
          <ag_computed_attributes fillColor="#40ff00" fontColor="#000000" value="1" />
          <ag_computed_attributes_function_reference ag_computed_attributes_function_reference="dbg60ff69g9a" />
          <ag_aggregation_function_reference ag_aggregation_function_reference="6b1d22791hih8" />
          <mxCell style="verticalAlign=top;align=center;fillColor=#FFFFFF;gradientColor=none;labelBackgroundColor=none;rounded=0;whiteSpace=wrap;shape=attackgraphs.node;spacingRight=20;" parent="1" vertex="1">
            <mxGeometry x="2570" y="680" width="180" height="60" as="geometry" />
          </mxCell>
        </object>
        <object id="1qkWPqTPLnTGLn8MYxJF-23">
          <ag_attributes />
          <ag_computed_attributes />
          <mxCell style="edgeStyle=none;rounded=0;orthogonalLoop=1;jettySize=auto;html=1;entryX=1;entryY=0.5;entryDx=0;entryDy=0;entryPerimeter=0;strokeWidth=2;strokeColor=#000000;verticalAlign=top;spacingRight=20;" parent="1" source="Uiwz3RxvrwPI8K2oxm7w-43" target="1qkWPqTPLnTGLn8MYxJF-22" edge="1">
            <mxGeometry relative="1" as="geometry" />
          </mxCell>
        </object>
        <object id="1qkWPqTPLnTGLn8MYxJF-26">
          <ag_attributes />
          <ag_computed_attributes />
          <mxCell style="edgeStyle=none;rounded=0;orthogonalLoop=1;jettySize=auto;html=1;strokeWidth=2;strokeColor=#000000;verticalAlign=top;spacingRight=20;" parent="1" source="Uiwz3RxvrwPI8K2oxm7w-43" target="1qkWPqTPLnTGLn8MYxJF-19" edge="1">
            <mxGeometry relative="1" as="geometry" />
          </mxCell>
        </object>
        <object id="Uiwz3RxvrwPI8K2oxm7w-66">
          <ag_attributes />
          <ag_computed_attributes />
          <mxCell style="edgeStyle=none;rounded=0;orthogonalLoop=1;jettySize=auto;html=1;strokeWidth=2;strokeColor=#000000;verticalAlign=top;spacingRight=20;" parent="1" source="Uiwz3RxvrwPI8K2oxm7w-44" target="Uiwz3RxvrwPI8K2oxm7w-39" edge="1">
            <mxGeometry relative="1" as="geometry" />
          </mxCell>
        </object>
        <object id="Uiwz3RxvrwPI8K2oxm7w-72">
          <ag_attributes />
          <ag_computed_attributes />
          <mxCell style="edgeStyle=none;rounded=0;orthogonalLoop=1;jettySize=auto;html=1;strokeWidth=2;strokeColor=#000000;verticalAlign=top;spacingRight=20;" parent="1" source="Uiwz3RxvrwPI8K2oxm7w-44" target="Uiwz3RxvrwPI8K2oxm7w-42" edge="1">
            <mxGeometry relative="1" as="geometry" />
          </mxCell>
        </object>
        <object id="Uiwz3RxvrwPI8K2oxm7w-73">
          <ag_attributes />
          <ag_computed_attributes />
          <mxCell style="edgeStyle=none;rounded=0;orthogonalLoop=1;jettySize=auto;html=1;strokeWidth=2;strokeColor=#000000;verticalAlign=top;spacingRight=20;" parent="1" source="Uiwz3RxvrwPI8K2oxm7w-44" target="Uiwz3RxvrwPI8K2oxm7w-43" edge="1">
            <mxGeometry relative="1" as="geometry" />
          </mxCell>
        </object>
        <object id="1qkWPqTPLnTGLn8MYxJF-12">
          <ag_attributes />
          <ag_computed_attributes />
          <mxCell style="edgeStyle=none;rounded=0;orthogonalLoop=1;jettySize=auto;html=1;strokeWidth=2;strokeColor=#000000;verticalAlign=top;spacingRight=20;" parent="1" source="Uiwz3RxvrwPI8K2oxm7w-44" target="1qkWPqTPLnTGLn8MYxJF-5" edge="1">
            <mxGeometry relative="1" as="geometry" />
          </mxCell>
        </object>
        <object label="Manipulate train position" id="Uiwz3RxvrwPI8K2oxm7w-44">
          <ag_attributes label="Fälschung ortsfester Referenzpunkte" Resources="4" Knowledge="4" Location="1" _marking="Uiwz3RxvrwPI8K2oxm7w-43" />
          <ag_computed_attributes fillColor="#40ff00" fontColor="#000000" value="1" />
          <ag_computed_attributes_function_reference ag_computed_attributes_function_reference="dbg60ff69g9a" />
          <ag_aggregation_function_reference ag_aggregation_function_reference="6b1d22791hih8" />
          <mxCell style="verticalAlign=top;align=center;fillColor=#FFFFFF;gradientColor=none;labelBackgroundColor=none;rounded=0;whiteSpace=wrap;shape=attackgraphs.node;spacingRight=20;" parent="1" vertex="1">
            <mxGeometry x="1660" y="480" width="180" height="60" as="geometry" />
          </mxCell>
        </object>
        <object id="Uiwz3RxvrwPI8K2oxm7w-70">
          <ag_attributes />
          <ag_computed_attributes />
          <mxCell style="edgeStyle=none;rounded=0;orthogonalLoop=1;jettySize=auto;html=1;strokeWidth=2;strokeColor=#000000;verticalAlign=top;spacingRight=20;" parent="1" source="Uiwz3RxvrwPI8K2oxm7w-45" target="Uiwz3RxvrwPI8K2oxm7w-42" edge="1">
            <mxGeometry relative="1" as="geometry" />
          </mxCell>
        </object>
        <object id="Y63ZTUztEMgZLybOCHic-3">
          <ag_attributes />
          <ag_computed_attributes />
          <mxCell style="rounded=0;orthogonalLoop=1;jettySize=auto;html=1;strokeWidth=2;strokeColor=#000000;verticalAlign=top;spacingRight=20;" parent="1" source="Uiwz3RxvrwPI8K2oxm7w-45" target="Uiwz3RxvrwPI8K2oxm7w-40" edge="1">
            <mxGeometry relative="1" as="geometry" />
          </mxCell>
        </object>
        <object id="1qkWPqTPLnTGLn8MYxJF-14">
          <ag_attributes />
          <ag_computed_attributes />
          <mxCell style="edgeStyle=none;rounded=0;orthogonalLoop=1;jettySize=auto;html=1;strokeWidth=2;strokeColor=#000000;verticalAlign=top;spacingRight=20;" parent="1" source="Uiwz3RxvrwPI8K2oxm7w-45" target="1qkWPqTPLnTGLn8MYxJF-5" edge="1">
            <mxGeometry relative="1" as="geometry" />
          </mxCell>
        </object>
        <object label="Manipulate Speed Profile" id="Uiwz3RxvrwPI8K2oxm7w-45">
          <ag_attributes label="Spoofing der digitalen Zugschlussscheibe" Resources="4" Knowledge="4" Location="1" _marking="1qkWPqTPLnTGLn8MYxJF-5" />
          <ag_computed_attributes fillColor="#40ff00" fontColor="#000000" value="1" />
          <ag_computed_attributes_function_reference ag_computed_attributes_function_reference="dbg60ff69g9a" />
          <ag_aggregation_function_reference ag_aggregation_function_reference="6b1d22791hih8" />
          <mxCell style="verticalAlign=top;align=center;fillColor=#FFFFFF;gradientColor=none;labelBackgroundColor=none;rounded=0;whiteSpace=wrap;shape=attackgraphs.node;spacingRight=20;" parent="1" vertex="1">
            <mxGeometry x="2275" y="480" width="180" height="60" as="geometry" />
          </mxCell>
        </object>
        <object id="Uiwz3RxvrwPI8K2oxm7w-69">
          <ag_attributes />
          <ag_computed_attributes />
          <mxCell style="edgeStyle=none;rounded=0;orthogonalLoop=1;jettySize=auto;html=1;strokeWidth=2;strokeColor=#000000;verticalAlign=top;spacingRight=20;" parent="1" source="Uiwz3RxvrwPI8K2oxm7w-46" target="Uiwz3RxvrwPI8K2oxm7w-37" edge="1">
            <mxGeometry relative="1" as="geometry" />
          </mxCell>
        </object>
        <object id="Uiwz3RxvrwPI8K2oxm7w-71">
          <ag_attributes />
          <ag_computed_attributes />
          <mxCell style="edgeStyle=none;rounded=0;orthogonalLoop=1;jettySize=auto;html=1;strokeWidth=2;strokeColor=#000000;verticalAlign=top;spacingRight=20;" parent="1" source="Uiwz3RxvrwPI8K2oxm7w-46" target="Uiwz3RxvrwPI8K2oxm7w-42" edge="1">
            <mxGeometry relative="1" as="geometry" />
          </mxCell>
        </object>
        <object id="Y63ZTUztEMgZLybOCHic-4">
          <ag_attributes />
          <ag_computed_attributes />
          <mxCell style="edgeStyle=none;rounded=0;orthogonalLoop=1;jettySize=auto;html=1;strokeWidth=2;strokeColor=#000000;verticalAlign=top;spacingRight=20;" parent="1" source="Uiwz3RxvrwPI8K2oxm7w-46" target="Uiwz3RxvrwPI8K2oxm7w-40" edge="1">
            <mxGeometry relative="1" as="geometry" />
          </mxCell>
        </object>
        <object id="1qkWPqTPLnTGLn8MYxJF-13">
          <ag_attributes />
          <ag_computed_attributes />
          <mxCell style="edgeStyle=none;rounded=0;orthogonalLoop=1;jettySize=auto;html=1;strokeWidth=2;strokeColor=#000000;verticalAlign=top;spacingRight=20;" parent="1" source="Uiwz3RxvrwPI8K2oxm7w-46" target="1qkWPqTPLnTGLn8MYxJF-5" edge="1">
            <mxGeometry relative="1" as="geometry" />
          </mxCell>
        </object>
        <object label="Manipulate Driving Recommendation" id="Uiwz3RxvrwPI8K2oxm7w-46">
          <ag_attributes label="Spoofing der digitalen Zugschlussscheibe" Resources="4" Knowledge="4" Location="1" _marking="1qkWPqTPLnTGLn8MYxJF-5" />
          <ag_computed_attributes fillColor="#40ff00" fontColor="#000000" value="1" />
          <ag_computed_attributes_function_reference ag_computed_attributes_function_reference="dbg60ff69g9a" />
          <ag_aggregation_function_reference ag_aggregation_function_reference="6b1d22791hih8" />
          <mxCell style="verticalAlign=top;align=center;fillColor=#FFFFFF;gradientColor=none;labelBackgroundColor=none;rounded=0;whiteSpace=wrap;shape=attackgraphs.node;spacingRight=20;" parent="1" vertex="1">
            <mxGeometry x="1980" y="480" width="180" height="60" as="geometry" />
          </mxCell>
        </object>
        <object id="Uiwz3RxvrwPI8K2oxm7w-68">
          <ag_attributes />
          <ag_computed_attributes />
          <mxCell style="edgeStyle=none;rounded=0;orthogonalLoop=1;jettySize=auto;html=1;strokeWidth=2;strokeColor=#000000;verticalAlign=top;spacingRight=20;" parent="1" source="Uiwz3RxvrwPI8K2oxm7w-47" target="Uiwz3RxvrwPI8K2oxm7w-41" edge="1">
            <mxGeometry relative="1" as="geometry" />
          </mxCell>
        </object>
        <object label="Prevent communication with signal box" id="Uiwz3RxvrwPI8K2oxm7w-47">
          <ag_attributes label="NaN" Resources="4" Knowledge="5" Location="1" _marking="Uiwz3RxvrwPI8K2oxm7w-41" />
          <ag_computed_attributes fillColor="#40ff00" fontColor="#000000" value="1" />
          <ag_computed_attributes_function_reference ag_computed_attributes_function_reference="dbg60ff69g9a" />
          <ag_aggregation_function_reference ag_aggregation_function_reference="6b1d22791hih8" />
          <mxCell style="verticalAlign=top;align=center;fillColor=#FFFFFF;gradientColor=none;labelBackgroundColor=none;rounded=0;whiteSpace=wrap;shape=attackgraphs.node;spacingRight=20;" parent="1" vertex="1">
            <mxGeometry x="950" y="480" width="180" height="60" as="geometry" />
          </mxCell>
        </object>
        <object id="Uiwz3RxvrwPI8K2oxm7w-67">
          <ag_attributes />
          <ag_computed_attributes />
          <mxCell style="edgeStyle=none;rounded=0;orthogonalLoop=1;jettySize=auto;html=1;strokeWidth=2;strokeColor=#000000;verticalAlign=top;spacingRight=20;" parent="1" source="Uiwz3RxvrwPI8K2oxm7w-48" target="Uiwz3RxvrwPI8K2oxm7w-41" edge="1">
            <mxGeometry relative="1" as="geometry" />
          </mxCell>
        </object>
        <object label="Prevent communication with disposition" id="Uiwz3RxvrwPI8K2oxm7w-48">
          <ag_attributes label="NaN" Resources="4" Knowledge="5" Location="1" _marking="Uiwz3RxvrwPI8K2oxm7w-41" />
          <ag_computed_attributes fillColor="#40ff00" fontColor="#000000" value="1" />
          <ag_computed_attributes_function_reference ag_computed_attributes_function_reference="dbg60ff69g9a" />
          <ag_aggregation_function_reference ag_aggregation_function_reference="6b1d22791hih8" />
          <mxCell style="verticalAlign=top;align=center;fillColor=#FFFFFF;gradientColor=none;labelBackgroundColor=none;rounded=0;whiteSpace=wrap;shape=attackgraphs.node;spacingRight=20;" parent="1" vertex="1">
            <mxGeometry x="1245" y="480" width="180" height="60" as="geometry" />
          </mxCell>
        </object>
        <object id="Ix9G6hSQ4KYSyDZbYxxm-6">
          <ag_attributes />
          <ag_computed_attributes />
          <mxCell style="edgeStyle=none;rounded=0;orthogonalLoop=1;jettySize=auto;html=1;entryX=0.5;entryY=0;entryDx=0;entryDy=0;strokeWidth=2;startArrow=diamondThin;startFill=1;endArrow=none;endFill=0;strokeColor=#000000;" parent="1" source="1qkWPqTPLnTGLn8MYxJF-1" target="Ix9G6hSQ4KYSyDZbYxxm-4" edge="1">
            <mxGeometry relative="1" as="geometry" />
          </mxCell>
        </object>
        <object label="FRMCS Jamming" Resources="2" Knowledge="2" Location="1" id="1qkWPqTPLnTGLn8MYxJF-1">
          <labelValue labelValue="" />
          <ag_attributes label="NaN" Resources="4" Knowledge="5" Location="1" />
          <ag_computed_attributes fillColor="#40ff00" fontColor="#000000" value="1" />
          <ag_computed_attributes_function_reference ag_computed_attributes_function_reference="dbg60ff69g9a" />
          <ag_aggregation_function_reference ag_aggregation_function_reference="73f575i0ghij5" />
          <mxCell style="shape=attackgraphs.node;fillColor=#FEE599;verticalAlign=top;spacingRight=20;" parent="1" vertex="1">
            <mxGeometry x="320" y="830" width="150" height="75" as="geometry" />
          </mxCell>
        </object>
        <object id="Ix9G6hSQ4KYSyDZbYxxm-3">
          <ag_attributes />
          <ag_computed_attributes />
          <mxCell style="edgeStyle=none;rounded=0;orthogonalLoop=1;jettySize=auto;html=1;entryX=0.5;entryY=0;entryDx=0;entryDy=0;startArrow=diamondThin;startFill=1;endArrow=none;endFill=0;strokeWidth=2;strokeColor=#000000;" parent="1" source="1qkWPqTPLnTGLn8MYxJF-2" target="Ix9G6hSQ4KYSyDZbYxxm-2" edge="1">
            <mxGeometry relative="1" as="geometry">
              <mxPoint x="550" y="986" as="sourcePoint" />
            </mxGeometry>
          </mxCell>
        </object>
        <object id="Ix9G6hSQ4KYSyDZbYxxm-28">
          <ag_attributes />
          <ag_computed_attributes />
          <mxCell style="edgeStyle=none;rounded=0;orthogonalLoop=1;jettySize=auto;html=1;strokeWidth=2;startArrow=diamondThin;startFill=1;endArrow=none;endFill=0;strokeColor=#000000;" parent="1" source="1qkWPqTPLnTGLn8MYxJF-2" target="Ix9G6hSQ4KYSyDZbYxxm-24" edge="1">
            <mxGeometry relative="1" as="geometry" />
          </mxCell>
        </object>
        <object label="Destroy Hardware" Resources="1" Knowledge="1" Location="1" id="1qkWPqTPLnTGLn8MYxJF-2">
          <labelValue labelValue="" />
          <ag_attributes label="NaN" Resources="5" Knowledge="3" Location="1" />
          <ag_computed_attributes fillColor="#40ff00" fontColor="#000000" value="1" />
          <ag_computed_attributes_function_reference ag_computed_attributes_function_reference="dbg60ff69g9a" />
          <ag_aggregation_function_reference ag_aggregation_function_reference="73f575i0ghij5" />
          <ag_enabled ag_enabled="1" />
          <mxCell style="shape=attackgraphs.node;fillColor=#D7E3BF;verticalAlign=top;spacingRight=20;" parent="1" vertex="1">
            <mxGeometry x="490" y="830" width="160" height="76" as="geometry" />
          </mxCell>
        </object>
        <object id="1qkWPqTPLnTGLn8MYxJF-9">
          <ag_attributes />
          <ag_computed_attributes />
          <mxCell style="edgeStyle=none;rounded=0;orthogonalLoop=1;jettySize=auto;html=1;strokeWidth=2;strokeColor=#000000;verticalAlign=top;spacingRight=20;" parent="1" source="1qkWPqTPLnTGLn8MYxJF-5" target="1qkWPqTPLnTGLn8MYxJF-6" edge="1">
            <mxGeometry relative="1" as="geometry" />
          </mxCell>
        </object>
        <object id="1qkWPqTPLnTGLn8MYxJF-10">
          <ag_attributes />
          <ag_computed_attributes />
          <mxCell style="edgeStyle=none;rounded=0;orthogonalLoop=1;jettySize=auto;html=1;strokeWidth=2;strokeColor=#000000;verticalAlign=top;spacingRight=20;" parent="1" source="1qkWPqTPLnTGLn8MYxJF-5" target="1qkWPqTPLnTGLn8MYxJF-7" edge="1">
            <mxGeometry relative="1" as="geometry" />
          </mxCell>
        </object>
        <object id="1qkWPqTPLnTGLn8MYxJF-11">
          <ag_attributes />
          <ag_computed_attributes />
          <mxCell style="edgeStyle=none;rounded=0;orthogonalLoop=1;jettySize=auto;html=1;strokeWidth=2;strokeColor=#000000;verticalAlign=top;spacingRight=20;" parent="1" source="1qkWPqTPLnTGLn8MYxJF-5" target="1qkWPqTPLnTGLn8MYxJF-8" edge="1">
            <mxGeometry relative="1" as="geometry" />
          </mxCell>
        </object>
        <object id="1qkWPqTPLnTGLn8MYxJF-48">
          <ag_attributes />
          <ag_computed_attributes />
          <mxCell style="edgeStyle=none;rounded=0;orthogonalLoop=1;jettySize=auto;html=1;strokeWidth=2;strokeColor=#000000;verticalAlign=top;spacingRight=20;" parent="1" source="1qkWPqTPLnTGLn8MYxJF-5" target="1qkWPqTPLnTGLn8MYxJF-46" edge="1">
            <mxGeometry relative="1" as="geometry" />
          </mxCell>
        </object>
        <object label="Deceive infrastructure monitoring" id="1qkWPqTPLnTGLn8MYxJF-5">
          <ag_attributes label="Spoofing der digitalen Zugschlussscheibe" Resources="4" Knowledge="4" Location="1" _marking="1qkWPqTPLnTGLn8MYxJF-46" />
          <ag_computed_attributes fillColor="#40ff00" fontColor="#000000" value="1" />
          <ag_aggregation_function_reference ag_aggregation_function_reference="6b1d22791hih8" />
          <ag_computed_attributes_function_reference ag_computed_attributes_function_reference="dbg60ff69g9a" />
          <mxCell style="verticalAlign=top;align=center;fillColor=#FFFFFF;gradientColor=none;labelBackgroundColor=none;rounded=0;whiteSpace=wrap;shape=attackgraphs.node;spacingRight=20;" parent="1" vertex="1">
            <mxGeometry x="2100" y="680" width="180" height="60" as="geometry" />
          </mxCell>
        </object>
        <object id="Ix9G6hSQ4KYSyDZbYxxm-23">
          <ag_attributes />
          <ag_computed_attributes />
          <mxCell style="edgeStyle=none;rounded=0;orthogonalLoop=1;jettySize=auto;html=1;strokeWidth=2;startArrow=diamondThin;startFill=1;endArrow=none;endFill=0;strokeColor=#000000;" parent="1" source="1qkWPqTPLnTGLn8MYxJF-6" target="Ix9G6hSQ4KYSyDZbYxxm-18" edge="1">
            <mxGeometry relative="1" as="geometry" />
          </mxCell>
        </object>
        <object id="Ix9G6hSQ4KYSyDZbYxxm-46">
          <ag_attributes />
          <ag_computed_attributes />
          <mxCell style="edgeStyle=none;rounded=0;orthogonalLoop=1;jettySize=auto;html=1;entryX=0.5;entryY=0;entryDx=0;entryDy=0;strokeWidth=2;startArrow=diamondThin;startFill=1;endArrow=none;endFill=0;strokeColor=#000000;" parent="1" source="1qkWPqTPLnTGLn8MYxJF-6" target="Ix9G6hSQ4KYSyDZbYxxm-24" edge="1">
            <mxGeometry relative="1" as="geometry" />
          </mxCell>
        </object>
        <object label="Exploit Error in Safe Hardware" Resources="4" Knowledge="4" Location="0" id="1qkWPqTPLnTGLn8MYxJF-6">
          <labelValue labelValue="" />
          <ag_attributes label="NaN" Resources="5" Knowledge="5" Location="1" />
          <ag_computed_attributes fillColor="#40ff00" fontColor="#000000" value="1" />
          <ag_computed_attributes_function_reference ag_computed_attributes_function_reference="dbg60ff69g9a" />
          <ag_aggregation_function_reference ag_aggregation_function_reference="73f575i0ghij5" />
          <mxCell style="shape=attackgraphs.node;fillColor=#D7E3BF;whiteSpace=wrap;verticalAlign=top;spacingRight=20;" parent="1" vertex="1">
            <mxGeometry x="2030" y="830" width="150" height="75" as="geometry" />
          </mxCell>
        </object>
        <object id="Ix9G6hSQ4KYSyDZbYxxm-20">
          <ag_attributes />
          <ag_computed_attributes />
          <mxCell style="edgeStyle=none;rounded=0;orthogonalLoop=1;jettySize=auto;html=1;strokeWidth=2;startArrow=diamondThin;startFill=1;endArrow=none;endFill=0;strokeColor=#000000;" parent="1" source="1qkWPqTPLnTGLn8MYxJF-7" target="Ix9G6hSQ4KYSyDZbYxxm-18" edge="1">
            <mxGeometry relative="1" as="geometry" />
          </mxCell>
        </object>
        <object id="Ix9G6hSQ4KYSyDZbYxxm-26">
          <ag_attributes />
          <ag_computed_attributes />
          <mxCell style="edgeStyle=none;rounded=0;orthogonalLoop=1;jettySize=auto;html=1;strokeWidth=2;startArrow=diamondThin;startFill=1;endArrow=none;endFill=0;strokeColor=#000000;" parent="1" source="1qkWPqTPLnTGLn8MYxJF-7" target="Ix9G6hSQ4KYSyDZbYxxm-24" edge="1">
            <mxGeometry relative="1" as="geometry" />
          </mxCell>
        </object>
        <object label="Inject compromised safe hardware" Resources="3" Knowledge="3" Location="1" id="1qkWPqTPLnTGLn8MYxJF-7">
          <labelValue labelValue="" />
          <ag_attributes label="NaN" Resources="5" Knowledge="5" Location="1" />
          <ag_computed_attributes fillColor="#40ff00" fontColor="#000000" value="1" />
          <ag_computed_attributes_function_reference ag_computed_attributes_function_reference="dbg60ff69g9a" />
          <ag_aggregation_function_reference ag_aggregation_function_reference="73f575i0ghij5" />
          <mxCell style="shape=attackgraphs.node;fillColor=#D7E3BF;whiteSpace=wrap;verticalAlign=top;spacingRight=20;" parent="1" vertex="1">
            <mxGeometry x="2200" y="830" width="150" height="75" as="geometry" />
          </mxCell>
        </object>
        <object id="Ix9G6hSQ4KYSyDZbYxxm-12">
          <ag_attributes />
          <ag_computed_attributes />
          <mxCell style="edgeStyle=none;rounded=0;orthogonalLoop=1;jettySize=auto;html=1;strokeWidth=2;startArrow=diamondThin;startFill=1;endArrow=none;endFill=0;strokeColor=#000000;" parent="1" source="1qkWPqTPLnTGLn8MYxJF-8" target="WxrAOenjU9FATPxDFI2T-8" edge="1">
            <mxGeometry relative="1" as="geometry" />
          </mxCell>
        </object>
        <object id="Ix9G6hSQ4KYSyDZbYxxm-21">
          <ag_attributes />
          <ag_computed_attributes />
          <mxCell style="edgeStyle=none;rounded=0;orthogonalLoop=1;jettySize=auto;html=1;strokeWidth=2;startArrow=diamondThin;startFill=1;endArrow=none;endFill=0;strokeColor=#000000;" parent="1" source="1qkWPqTPLnTGLn8MYxJF-8" target="Ix9G6hSQ4KYSyDZbYxxm-18" edge="1">
            <mxGeometry relative="1" as="geometry" />
          </mxCell>
        </object>
        <object id="Ix9G6hSQ4KYSyDZbYxxm-27">
          <ag_attributes />
          <ag_computed_attributes />
          <mxCell style="edgeStyle=none;rounded=0;orthogonalLoop=1;jettySize=auto;html=1;strokeWidth=2;startArrow=diamondThin;startFill=1;endArrow=none;endFill=0;strokeColor=#000000;sourcePortConstraint=none;" parent="1" source="1qkWPqTPLnTGLn8MYxJF-8" target="Ix9G6hSQ4KYSyDZbYxxm-24" edge="1">
            <mxGeometry relative="1" as="geometry" />
          </mxCell>
        </object>
        <object label="Manipulation field element" Resources="3" Knowledge="3" Location="1" id="1qkWPqTPLnTGLn8MYxJF-8">
          <labelValue labelValue="" />
          <ag_attributes label="NaN" Resources="5" Knowledge="5" Location="1" />
          <ag_computed_attributes fillColor="#40ff00" fontColor="#000000" value="1" />
          <ag_computed_attributes_function_reference ag_computed_attributes_function_reference="dbg60ff69g9a" />
          <ag_aggregation_function_reference ag_aggregation_function_reference="73f575i0ghij5" />
          <mxCell style="shape=attackgraphs.node;fillColor=#FEE599;verticalAlign=top;spacingRight=20;whiteSpace=wrap;" parent="1" vertex="1">
            <mxGeometry x="2390" y="830" width="150" height="75" as="geometry" />
          </mxCell>
        </object>
        <object id="WxrAOenjU9FATPxDFI2T-2">
          <ag_attributes />
          <ag_computed_attributes />
          <mxCell style="rounded=0;orthogonalLoop=1;jettySize=auto;html=1;strokeWidth=2;startArrow=diamondThin;startFill=1;endArrow=none;endFill=0;strokeColor=#000000;verticalAlign=top;spacingRight=20;" parent="1" source="1qkWPqTPLnTGLn8MYxJF-15" target="WxrAOenjU9FATPxDFI2T-1" edge="1">
            <mxGeometry relative="1" as="geometry">
              <mxPoint x="720" y="916" as="sourcePoint" />
            </mxGeometry>
          </mxCell>
        </object>
        <object label="Inject malware" Resources="3" Knowledge="3" Location="0" id="1qkWPqTPLnTGLn8MYxJF-15">
          <labelValue labelValue="" />
          <ag_attributes label="NaN" Resources="5" Knowledge="5" Location="0" />
          <ag_computed_attributes fillColor="#40ff00" fontColor="#000000" value="1" />
          <ag_computed_attributes_function_reference ag_computed_attributes_function_reference="dbg60ff69g9a" />
          <ag_aggregation_function_reference ag_aggregation_function_reference="73f575i0ghij5" />
          <mxCell style="shape=attackgraphs.node;fillColor=#D7E3BF;verticalAlign=top;spacingRight=20;" parent="1" vertex="1">
            <mxGeometry x="670" y="830" width="150" height="75" as="geometry" />
          </mxCell>
        </object>
        <object label="Insert and Exploit Backdoors" Resources="2" Knowledge="2" Location="0" id="1qkWPqTPLnTGLn8MYxJF-16">
          <labelValue labelValue="" />
          <ag_attributes label="NaN" Resources="4" Knowledge="5" Location="0" />
          <ag_computed_attributes fillColor="#40ff00" fontColor="#000000" value="1" />
          <ag_computed_attributes_function_reference ag_computed_attributes_function_reference="dbg60ff69g9a" />
          <ag_aggregation_function_reference ag_aggregation_function_reference="73f575i0ghij5" />
          <mxCell style="shape=attackgraphs.node;fillColor=#D7E3BF;whiteSpace=wrap;verticalAlign=top;spacingRight=20;" parent="1" vertex="1">
            <mxGeometry x="852.88" y="830" width="150" height="75" as="geometry" />
          </mxCell>
        </object>
        <object label="Forge Stationary Reference Points" Resources="4" Knowledge="4" Location="1" id="1qkWPqTPLnTGLn8MYxJF-19">
          <labelValue labelValue="" />
          <ag_attributes />
          <ag_computed_attributes fillColor="#40ff00" fontColor="#000000" value="1" />
          <ag_computed_attributes_function_reference ag_computed_attributes_function_reference="dbg60ff69g9a" />
          <mxCell style="shape=attackgraphs.node;fillColor=#D7E3BF;whiteSpace=wrap;verticalAlign=top;spacingRight=20;" parent="1" vertex="1">
            <mxGeometry x="1262.88" y="956" width="150" height="60" as="geometry" />
          </mxCell>
        </object>
        <object id="Ix9G6hSQ4KYSyDZbYxxm-7">
          <ag_attributes />
          <ag_computed_attributes />
          <mxCell style="edgeStyle=none;rounded=0;orthogonalLoop=1;jettySize=auto;html=1;entryX=1;entryY=0.25;entryDx=0;entryDy=0;strokeWidth=2;startArrow=diamondThin;startFill=1;endArrow=none;endFill=0;strokeColor=#000000;" parent="1" source="1qkWPqTPLnTGLn8MYxJF-20" target="Ix9G6hSQ4KYSyDZbYxxm-2" edge="1">
            <mxGeometry relative="1" as="geometry" />
          </mxCell>
        </object>
        <object id="Ix9G6hSQ4KYSyDZbYxxm-41">
          <ag_attributes />
          <ag_computed_attributes />
          <mxCell style="edgeStyle=none;rounded=0;orthogonalLoop=1;jettySize=auto;html=1;strokeWidth=2;startArrow=diamondThin;startFill=1;endArrow=none;endFill=0;strokeColor=#000000;entryX=0.5;entryY=0;entryDx=0;entryDy=0;" parent="1" source="1qkWPqTPLnTGLn8MYxJF-20" target="Ix9G6hSQ4KYSyDZbYxxm-44" edge="1">
            <mxGeometry relative="1" as="geometry">
              <mxPoint x="970" y="1316" as="targetPoint" />
            </mxGeometry>
          </mxCell>
        </object>
        <object label="GNSS Spoofing" Resources="3" Knowledge="3" Location="1" id="1qkWPqTPLnTGLn8MYxJF-20">
          <labelValue labelValue="" />
          <ag_attributes label="NaN" Resources="5" Knowledge="5" Location="1" />
          <ag_computed_attributes fillColor="#40ff00" fontColor="#000000" value="1" />
          <ag_computed_attributes_function_reference ag_computed_attributes_function_reference="dbg60ff69g9a" />
          <ag_aggregation_function_reference ag_aggregation_function_reference="73f575i0ghij5" />
          <mxCell style="shape=attackgraphs.node;fillColor=#FEE599;verticalAlign=top;spacingRight=20;" parent="1" vertex="1">
            <mxGeometry x="900" y="956" width="150" height="60" as="geometry" />
          </mxCell>
        </object>
        <object id="Ix9G6hSQ4KYSyDZbYxxm-29">
          <ag_attributes />
          <ag_computed_attributes />
          <mxCell style="edgeStyle=none;rounded=0;orthogonalLoop=1;jettySize=auto;html=1;strokeWidth=2;startArrow=diamondThin;startFill=1;endArrow=none;endFill=0;strokeColor=#000000;" parent="1" source="1qkWPqTPLnTGLn8MYxJF-21" target="Ix9G6hSQ4KYSyDZbYxxm-24" edge="1">
            <mxGeometry relative="1" as="geometry" />
          </mxCell>
        </object>
        <object label="Compromise FOS-unit&#10;(cf. Decentralized Interlocking)" Resources="2" Knowledge="1" Location="1" id="1qkWPqTPLnTGLn8MYxJF-21">
          <ag_attributes label="NaN" Resources="5" Knowledge="5" Location="1" />
          <ag_computed_attributes fillColor="#40ff00" fontColor="#000000" value="1" />
          <ag_aggregation_function_reference ag_aggregation_function_reference="73f575i0ghij5" />
          <ag_computed_attributes_function_reference ag_computed_attributes_function_reference="dbg60ff69g9a" />
          <mxCell style="verticalAlign=top;align=center;gradientColor=none;labelBackgroundColor=none;rounded=0;whiteSpace=wrap;shape=attackgraphs.node;fillColor=#FEE599;spacingRight=20;" parent="1" vertex="1">
            <mxGeometry x="1070" y="956" width="185" height="60" as="geometry" />
          </mxCell>
        </object>
        <object id="1qkWPqTPLnTGLn8MYxJF-24">
          <ag_attributes />
          <ag_computed_attributes />
          <mxCell style="edgeStyle=none;rounded=0;orthogonalLoop=1;jettySize=auto;html=1;strokeWidth=2;strokeColor=#000000;exitX=0;exitY=0.25;exitDx=0;exitDy=0;exitPerimeter=0;verticalAlign=top;spacingRight=20;" parent="1" source="1qkWPqTPLnTGLn8MYxJF-22" target="1qkWPqTPLnTGLn8MYxJF-20" edge="1">
            <mxGeometry relative="1" as="geometry" />
          </mxCell>
        </object>
        <object id="1qkWPqTPLnTGLn8MYxJF-25">
          <ag_attributes />
          <ag_computed_attributes />
          <mxCell style="edgeStyle=none;rounded=0;orthogonalLoop=1;jettySize=auto;html=1;strokeWidth=2;strokeColor=#000000;exitX=0;exitY=0.75;exitDx=0;exitDy=0;exitPerimeter=0;verticalAlign=top;spacingRight=20;" parent="1" source="1qkWPqTPLnTGLn8MYxJF-22" target="1qkWPqTPLnTGLn8MYxJF-21" edge="1">
            <mxGeometry relative="1" as="geometry" />
          </mxCell>
        </object>
        <labelValue id="1qkWPqTPLnTGLn8MYxJF-22">
          <labelValue labelValue="" />
          <ag_attributes label="NaN" Resources="5" Knowledge="5" Location="1" _marking="1qkWPqTPLnTGLn8MYxJF-20;1qkWPqTPLnTGLn8MYxJF-21" />
          <ag_computed_attributes />
          <ag_aggregation_function_reference ag_aggregation_function_reference="gf0d4f199018" />
          <mxCell style="shape=or;whiteSpace=wrap;html=1;rotation=-90;verticalAlign=top;spacingRight=20;" parent="1" vertex="1">
            <mxGeometry x="1020" y="866" width="30" height="40" as="geometry" />
          </mxCell>
        </labelValue>
        <object id="1qkWPqTPLnTGLn8MYxJF-40">
          <ag_attributes />
          <ag_computed_attributes />
          <mxCell style="edgeStyle=none;rounded=0;orthogonalLoop=1;jettySize=auto;html=1;strokeWidth=2;strokeColor=#000000;verticalAlign=top;spacingRight=20;" parent="1" source="1qkWPqTPLnTGLn8MYxJF-36" target="1qkWPqTPLnTGLn8MYxJF-38" edge="1">
            <mxGeometry relative="1" as="geometry" />
          </mxCell>
        </object>
        <object id="1qkWPqTPLnTGLn8MYxJF-41">
          <ag_attributes />
          <ag_computed_attributes />
          <mxCell style="edgeStyle=none;rounded=0;orthogonalLoop=1;jettySize=auto;html=1;strokeWidth=2;strokeColor=#000000;verticalAlign=top;spacingRight=20;" parent="1" source="1qkWPqTPLnTGLn8MYxJF-36" target="1qkWPqTPLnTGLn8MYxJF-37" edge="1">
            <mxGeometry relative="1" as="geometry" />
          </mxCell>
        </object>
        <object label="Change Route Characteristics or Delete Danger Spots" id="1qkWPqTPLnTGLn8MYxJF-36">
          <ag_attributes label="NaN" Resources="5" Knowledge="5" Location="0" _marking="1qkWPqTPLnTGLn8MYxJF-38" />
          <ag_computed_attributes fillColor="#40ff00" fontColor="#000000" value="1" />
          <ag_computed_attributes_function_reference ag_computed_attributes_function_reference="dbg60ff69g9a" />
          <ag_aggregation_function_reference ag_aggregation_function_reference="6b1d22791hih8" />
          <mxCell style="verticalAlign=top;align=center;fillColor=#FFFFFF;gradientColor=none;labelBackgroundColor=none;rounded=0;whiteSpace=wrap;shape=attackgraphs.node;spacingRight=20;" parent="1" vertex="1">
            <mxGeometry x="2927" y="830" width="150" height="75" as="geometry" />
          </mxCell>
        </object>
        <object id="WxrAOenjU9FATPxDFI2T-10">
          <ag_attributes />
          <ag_computed_attributes />
          <mxCell style="edgeStyle=none;rounded=0;orthogonalLoop=1;jettySize=auto;html=1;strokeWidth=2;startArrow=diamondThin;startFill=1;endArrow=none;endFill=0;strokeColor=#000000;" parent="1" source="1qkWPqTPLnTGLn8MYxJF-37" target="WxrAOenjU9FATPxDFI2T-8" edge="1">
            <mxGeometry relative="1" as="geometry">
              <mxPoint x="3037" y="1046" as="sourcePoint" />
            </mxGeometry>
          </mxCell>
        </object>
        <object label="Modify Data Storage" Resources="3" Knowledge="3" Location="0" id="1qkWPqTPLnTGLn8MYxJF-37">
          <labelValue labelValue="" />
          <ag_attributes label="NaN" Resources="5" Knowledge="5" Location="0" />
          <ag_computed_attributes fillColor="#40ff00" fontColor="#000000" value="1" />
          <ag_computed_attributes_function_reference ag_computed_attributes_function_reference="dbg60ff69g9a" />
          <ag_aggregation_function_reference ag_aggregation_function_reference="73f575i0ghij5" />
          <mxCell style="shape=attackgraphs.node;fillColor=#D7E3BF;whiteSpace=wrap;verticalAlign=top;spacingRight=20;" parent="1" vertex="1">
            <mxGeometry x="2990" y="966" width="140" height="60" as="geometry" />
          </mxCell>
        </object>
        <object id="WxrAOenjU9FATPxDFI2T-9">
          <ag_attributes />
          <ag_computed_attributes />
          <mxCell style="edgeStyle=none;rounded=0;orthogonalLoop=1;jettySize=auto;html=1;strokeWidth=2;startArrow=diamondThin;startFill=1;endArrow=none;endFill=0;strokeColor=#000000;" parent="1" source="1qkWPqTPLnTGLn8MYxJF-38" target="WxrAOenjU9FATPxDFI2T-8" edge="1">
            <mxGeometry relative="1" as="geometry">
              <mxPoint x="2937" y="1056" as="sourcePoint" />
            </mxGeometry>
          </mxCell>
        </object>
        <object label="Insert wrong Update" Resources="3" Knowledge="3" Location="0" id="1qkWPqTPLnTGLn8MYxJF-38">
          <labelValue labelValue="" />
          <ag_attributes label="NaN" Resources="5" Knowledge="5" Location="0" />
          <ag_computed_attributes fillColor="#40ff00" fontColor="#000000" value="1" />
          <ag_computed_attributes_function_reference ag_computed_attributes_function_reference="dbg60ff69g9a" />
          <ag_aggregation_function_reference ag_aggregation_function_reference="73f575i0ghij5" />
          <mxCell style="shape=attackgraphs.node;fillColor=#D7E3BF;whiteSpace=wrap;verticalAlign=top;spacingRight=20;" parent="1" vertex="1">
            <mxGeometry x="2830" y="966" width="140" height="60" as="geometry" />
          </mxCell>
        </object>
        <object label="Man-in-the-middle attack" Resources="2" Knowledge="3" Location="0" id="1qkWPqTPLnTGLn8MYxJF-42">
          <labelValue labelValue="" />
          <ag_attributes label="NaN" Resources="4" Knowledge="5" Location="0" />
          <ag_computed_attributes fillColor="#40ff00" fontColor="#000000" value="1" />
          <ag_computed_attributes_function_reference ag_computed_attributes_function_reference="dbg60ff69g9a" />
          <ag_aggregation_function_reference ag_aggregation_function_reference="73f575i0ghij5" />
          <mxCell style="shape=attackgraphs.node;fillColor=#D7E3BF;whiteSpace=wrap;verticalAlign=top;spacingRight=20;" parent="1" vertex="1">
            <mxGeometry x="2580" y="830" width="150" height="75" as="geometry" />
          </mxCell>
        </object>
        <object id="Ix9G6hSQ4KYSyDZbYxxm-10">
          <ag_attributes />
          <ag_computed_attributes />
          <mxCell style="edgeStyle=none;rounded=0;orthogonalLoop=1;jettySize=auto;html=1;strokeWidth=2;startArrow=diamondThin;startFill=1;endArrow=none;endFill=0;strokeColor=#000000;" parent="1" source="1qkWPqTPLnTGLn8MYxJF-42" target="WxrAOenjU9FATPxDFI2T-8" edge="1">
            <mxGeometry relative="1" as="geometry" />
          </mxCell>
        </object>
        <object id="Ix9G6hSQ4KYSyDZbYxxm-17">
          <ag_attributes />
          <ag_computed_attributes />
          <mxCell style="edgeStyle=none;rounded=0;orthogonalLoop=1;jettySize=auto;html=1;entryX=0.5;entryY=0;entryDx=0;entryDy=0;strokeWidth=2;startArrow=diamondThin;startFill=1;endArrow=none;endFill=0;strokeColor=#000000;" parent="1" source="1qkWPqTPLnTGLn8MYxJF-43" target="Ix9G6hSQ4KYSyDZbYxxm-13" edge="1">
            <mxGeometry relative="1" as="geometry" />
          </mxCell>
        </object>
        <object label="Replay Attack" Resources="2" Knowledge="3" Location="1" id="1qkWPqTPLnTGLn8MYxJF-43">
          <labelValue labelValue="" />
          <ag_attributes label="NaN" Resources="4" Knowledge="5" Location="1" />
          <ag_computed_attributes fillColor="#40ff00" fontColor="#000000" value="1" />
          <ag_computed_attributes_function_reference ag_computed_attributes_function_reference="dbg60ff69g9a" />
          <ag_aggregation_function_reference ag_aggregation_function_reference="73f575i0ghij5" />
          <ag_enabled ag_enabled="1" />
          <mxCell style="shape=attackgraphs.node;fillColor=#FEE599;verticalAlign=top;spacingRight=20;" parent="1" vertex="1">
            <mxGeometry x="2738" y="830" width="150" height="76" as="geometry" />
          </mxCell>
        </object>
        <object label="Spoofing the digital tail end indicator" Resources="4" Knowledge="4" Location="1" id="1qkWPqTPLnTGLn8MYxJF-46">
          <labelValue labelValue="" />
          <ag_attributes />
          <ag_computed_attributes fillColor="#40ff00" fontColor="#000000" value="1" />
          <ag_computed_attributes_function_reference ag_computed_attributes_function_reference="dbg60ff69g9a" />
          <mxCell style="shape=attackgraphs.node;fillColor=#D7E3BF;whiteSpace=wrap;verticalAlign=top;spacingRight=20;" parent="1" vertex="1">
            <mxGeometry x="1860" y="830" width="150" height="75" as="geometry" />
          </mxCell>
        </object>
        <object label="Manipulation of the data set (cf. Intermodal Travel Chain)" Resources="5" Knowledge="5" Location="0" id="1qkWPqTPLnTGLn8MYxJF-52">
          <labelValue labelValue="" />
          <ag_attributes />
          <ag_computed_attributes fillColor="#40ff00" fontColor="#000000" value="1" />
          <ag_computed_attributes_function_reference ag_computed_attributes_function_reference="dbg60ff69g9a" />
          <mxCell style="shape=attackgraphs.node;fillColor=#FEE599;whiteSpace=wrap;verticalAlign=top;spacingRight=20;" parent="1" vertex="1">
            <mxGeometry x="1160" y="830" width="160" height="75" as="geometry" />
          </mxCell>
        </object>
        <object id="Ix9G6hSQ4KYSyDZbYxxm-9">
          <ag_attributes />
          <ag_computed_attributes />
          <mxCell style="edgeStyle=none;rounded=0;orthogonalLoop=1;jettySize=auto;html=1;entryX=0.5;entryY=0;entryDx=0;entryDy=0;strokeWidth=2;startArrow=diamondThin;startFill=1;endArrow=none;endFill=0;strokeColor=#000000;" parent="1" source="1qkWPqTPLnTGLn8MYxJF-54" target="Ix9G6hSQ4KYSyDZbYxxm-8" edge="1">
            <mxGeometry relative="1" as="geometry" />
          </mxCell>
        </object>
        <object label="unconscious manipulation (cf intermodal travel chain)" Resources="2" Knowledge="2" Location="1" id="1qkWPqTPLnTGLn8MYxJF-54">
          <labelValue labelValue="" />
          <ag_attributes label="NaN" Resources="5" Knowledge="5" Location="1" />
          <ag_computed_attributes fillColor="#40ff00" fontColor="#000000" value="1" />
          <ag_computed_attributes_function_reference ag_computed_attributes_function_reference="dbg60ff69g9a" />
          <ag_aggregation_function_reference ag_aggregation_function_reference="73f575i0ghij5" />
          <mxCell style="shape=attackgraphs.node;fillColor=#FEE599;whiteSpace=wrap;verticalAlign=top;spacingRight=20;" parent="1" vertex="1">
            <mxGeometry x="1340" y="830" width="160" height="75" as="geometry" />
          </mxCell>
        </object>
        <object label="Manipulation of test cases (cf. Intermodal Travel Chain)" Resources="5" Knowledge="5" Location="0" id="1qkWPqTPLnTGLn8MYxJF-55">
          <labelValue labelValue="" />
          <ag_attributes />
          <ag_computed_attributes fillColor="#40ff00" fontColor="#000000" value="1" />
          <ag_computed_attributes_function_reference ag_computed_attributes_function_reference="dbg60ff69g9a" />
          <mxCell style="shape=attackgraphs.node;fillColor=#FEE599;whiteSpace=wrap;verticalAlign=top;spacingRight=20;" parent="1" vertex="1">
            <mxGeometry x="1520" y="830" width="160" height="75" as="geometry" />
          </mxCell>
        </object>
        <object id="Ix9G6hSQ4KYSyDZbYxxm-22">
          <ag_attributes />
          <ag_computed_attributes />
          <mxCell style="edgeStyle=none;rounded=0;orthogonalLoop=1;jettySize=auto;html=1;strokeWidth=2;startArrow=diamondThin;startFill=1;endArrow=none;endFill=0;strokeColor=#000000;" parent="1" source="1qkWPqTPLnTGLn8MYxJF-58" target="WxrAOenjU9FATPxDFI2T-8" edge="1">
            <mxGeometry relative="1" as="geometry">
              <mxPoint x="1840" y="926" as="sourcePoint" />
            </mxGeometry>
          </mxCell>
        </object>
        <object label="Replace AI model with manipulated one" Resources="4" Knowledge="4" Location="0" id="1qkWPqTPLnTGLn8MYxJF-58">
          <ag_attributes label="NaN" Resources="5" Knowledge="5" Location="0" />
          <ag_computed_attributes fillColor="#40ff00" fontColor="#000000" value="1" />
          <ag_computed_attributes_function_reference ag_computed_attributes_function_reference="dbg60ff69g9a" />
          <ag_aggregation_function_reference ag_aggregation_function_reference="73f575i0ghij5" />
          <mxCell style=";whiteSpace=wrap;fillColor=#d7e3bf;fontFamily=Helvetica;fontSize=12;fontColor=rgba(0, 0, 0, 1);align=center;verticalAlign=top;strokeColor=rgba(0, 0, 0, 1);shape=attackgraphs.node;spacingRight=20;perimeter=rectanglePerimeter;" parent="1" vertex="1">
            <mxGeometry x="1690" y="830" width="150" height="75" as="geometry" />
          </mxCell>
        </object>
        <object label="Disrupt communication" id="Uiwz3RxvrwPI8K2oxm7w-41">
          <ag_attributes label="NaN" Resources="4" Knowledge="5" Location="1" _marking="1qkWPqTPLnTGLn8MYxJF-1" />
          <ag_computed_attributes fillColor="#40ff00" fontColor="#000000" value="1" />
          <ag_aggregation_function_reference ag_aggregation_function_reference="6b1d22791hih8" />
          <ag_computed_attributes_function_reference ag_computed_attributes_function_reference="dbg60ff69g9a" />
          <mxCell style="verticalAlign=top;align=center;fillColor=#FFFFFF;gradientColor=none;labelBackgroundColor=none;rounded=0;whiteSpace=wrap;shape=attackgraphs.node;spacingRight=20;" parent="1" vertex="1">
            <mxGeometry x="520" y="680" width="180" height="60" as="geometry" />
          </mxCell>
        </object>
        <object label="Manipulate localization" id="Uiwz3RxvrwPI8K2oxm7w-43">
          <ag_attributes label="Fälschung ortsfester Referenzpunkte" Resources="4" Knowledge="4" Location="1" _marking="1qkWPqTPLnTGLn8MYxJF-19" />
          <ag_computed_attributes fillColor="#40ff00" fontColor="#000000" value="1" />
          <ag_computed_attributes_function_reference ag_computed_attributes_function_reference="dbg60ff69g9a" />
          <ag_aggregation_function_reference ag_aggregation_function_reference="6b1d22791hih8" />
          <mxCell style="verticalAlign=top;align=center;fillColor=#FFFFFF;gradientColor=none;labelBackgroundColor=none;rounded=0;whiteSpace=wrap;shape=attackgraphs.node;spacingRight=20;" parent="1" vertex="1">
            <mxGeometry x="1082.88" y="680" width="180" height="60" as="geometry" />
          </mxCell>
        </object>
        <object label="Manipulate AI" id="Uiwz3RxvrwPI8K2oxm7w-37">
          <ag_attributes label="Manipulation des Datenbestandes (siehe Intermodale Reisekette)" Resources="5" Knowledge="5" Location="0" _marking="1qkWPqTPLnTGLn8MYxJF-52" />
          <ag_computed_attributes fillColor="#40ff00" fontColor="#000000" value="1" />
          <ag_aggregation_function_reference ag_aggregation_function_reference="6b1d22791hih8" />
          <ag_computed_attributes_function_reference ag_computed_attributes_function_reference="dbg60ff69g9a" />
          <mxCell style="verticalAlign=top;align=center;fillColor=#FFFFFF;gradientColor=none;labelBackgroundColor=none;rounded=0;whiteSpace=wrap;shape=attackgraphs.node;spacingRight=20;" parent="1" vertex="1">
            <mxGeometry x="1460" y="680" width="180" height="60" as="geometry" />
          </mxCell>
        </object>
        <object label="Code Signing&#10;Malware Protection&#10;System hardening&#10;Access Control&#10;Source Code Audit" Resources="2" Knowledge="3" Location="0" id="WxrAOenjU9FATPxDFI2T-1">
          <ag_attributes />
          <ag_computed_attributes />
          <mxCell style="shape=attackgraphs.node;fillColor=#DAE8FC;verticalAlign=top;align=left;spacingRight=20;" parent="1" vertex="1">
            <mxGeometry x="700" y="1196" width="200" height="110" as="geometry" />
          </mxCell>
        </object>
        <object id="WxrAOenjU9FATPxDFI2T-4">
          <ag_attributes />
          <ag_computed_attributes />
          <mxCell style="rounded=0;orthogonalLoop=1;jettySize=auto;html=1;strokeWidth=2;startArrow=diamondThin;startFill=1;endArrow=none;endFill=0;strokeColor=#000000;verticalAlign=top;spacingRight=20;" parent="1" source="1qkWPqTPLnTGLn8MYxJF-16" target="WxrAOenjU9FATPxDFI2T-1" edge="1">
            <mxGeometry relative="1" as="geometry">
              <mxPoint x="810" y="926" as="sourcePoint" />
              <mxPoint x="706.875" y="976" as="targetPoint" />
            </mxGeometry>
          </mxCell>
        </object>
        <object label="Digital Signature&#10;Secure Data Storage&#10;Access Control&#10;Encryption" Resources="2" Knowledge="2" Location="0" id="WxrAOenjU9FATPxDFI2T-8">
          <ag_attributes />
          <ag_computed_attributes />
          <mxCell style="shape=attackgraphs.node;fillColor=#DAE8FC;verticalAlign=top;" parent="1" vertex="1">
            <mxGeometry x="2770" y="1236" width="140" height="90" as="geometry" />
          </mxCell>
        </object>
        <object id="kCRQuWALBWs58FWQ3LFZ-2">
          <ag_attributes />
          <ag_computed_attributes />
          <mxCell style="rounded=0;orthogonalLoop=1;jettySize=auto;html=1;strokeWidth=2;startArrow=diamondThin;startFill=1;endArrow=none;endFill=0;strokeColor=#000000;" parent="1" source="1qkWPqTPLnTGLn8MYxJF-21" target="kCRQuWALBWs58FWQ3LFZ-1" edge="1">
            <mxGeometry relative="1" as="geometry">
              <mxPoint x="810" y="926" as="sourcePoint" />
              <mxPoint x="706.875" y="976" as="targetPoint" />
            </mxGeometry>
          </mxCell>
        </object>
        <object label="Access Restriction&#10;Property protection&#10;Physical Protection&#10;Redundancy" Resources="3" Knowledge="1" Location="1" id="Ix9G6hSQ4KYSyDZbYxxm-2">
          <ag_attributes />
          <ag_computed_attributes />
          <ag_aggregation_function_reference ag_aggregation_function_reference="ag_none_function" />
          <mxCell style="shape=attackgraphs.node;fillColor=#DAE8FC;verticalAlign=top;align=left;" parent="1" vertex="1">
            <mxGeometry x="495" y="1196" width="150" height="90" as="geometry" />
          </mxCell>
        </object>
        <object label="Resilience" Resources="2" Knowledge="3" Location="0" id="Ix9G6hSQ4KYSyDZbYxxm-4">
          <ag_attributes />
          <ag_computed_attributes />
          <mxCell style="shape=attackgraphs.node;fillColor=#DAE8FC;verticalAlign=top;" parent="1" vertex="1">
            <mxGeometry x="320" y="1386" width="150" height="50" as="geometry" />
          </mxCell>
        </object>
        <object label="" id="Ix9G6hSQ4KYSyDZbYxxm-5">
          <ag_attributes />
          <ag_computed_attributes />
          <mxCell style="endArrow=none;dashed=1;html=1;dashPattern=1 3;strokeWidth=1;rounded=0;strokeColor=#000000;startArrow=none;" parent="1" edge="1">
            <mxGeometry width="50" height="50" relative="1" as="geometry">
              <mxPoint x="1040" y="1353.5813953488373" as="sourcePoint" />
              <mxPoint x="3120" y="1356" as="targetPoint" />
            </mxGeometry>
          </mxCell>
        </object>
        <object label="Awareness Training&#10;Validation and Tests (including regular repetition)&#10;Four-eyes Principle" Resources="3" Knowledge="3" Location="0" id="Ix9G6hSQ4KYSyDZbYxxm-8">
          <ag_attributes />
          <ag_computed_attributes />
          <mxCell style="shape=attackgraphs.node;fillColor=#DAE8FC;align=left;verticalAlign=top;spacingLeft=2;" parent="1" vertex="1">
            <mxGeometry x="1520" y="1026" width="330" height="80" as="geometry" />
          </mxCell>
        </object>
        <object label="Replay Protection" Resources="2" Knowledge="2" Location="0" id="Ix9G6hSQ4KYSyDZbYxxm-13">
          <ag_attributes />
          <ag_computed_attributes />
          <mxCell style="shape=attackgraphs.node;fillColor=#DAE8FC;verticalAlign=top;" parent="1" vertex="1">
            <mxGeometry x="2560" y="1236" width="150" height="50" as="geometry" />
          </mxCell>
        </object>
        <object label="Access Restriction&#10;Property protection&#10;Physical Protection&#10;Redundancy" Resources="3" Knowledge="1" Location="1" id="Ix9G6hSQ4KYSyDZbYxxm-18">
          <ag_attributes />
          <ag_computed_attributes />
          <ag_aggregation_function_reference ag_aggregation_function_reference="ag_none_function" />
          <mxCell style="shape=attackgraphs.node;fillColor=#DAE8FC;verticalAlign=top;align=left;" parent="1" vertex="1">
            <mxGeometry x="2190" y="1236" width="150" height="90" as="geometry" />
          </mxCell>
        </object>
        <object label="Security Monitoring" Resources="1" Knowledge="1" Location="0" id="Ix9G6hSQ4KYSyDZbYxxm-24">
          <ag_attributes />
          <ag_computed_attributes />
          <mxCell style="shape=attackgraphs.node;fillColor=#DAE8FC;align=left;verticalAlign=top;spacingLeft=2;portConstraint=none;" parent="1" vertex="1">
            <mxGeometry x="1875" y="1236" width="120" height="50" as="geometry" />
          </mxCell>
        </object>
        <object label="" id="Ix9G6hSQ4KYSyDZbYxxm-43">
          <ag_attributes />
          <ag_computed_attributes />
          <mxCell style="endArrow=none;dashed=1;html=1;dashPattern=1 3;strokeWidth=1;rounded=0;strokeColor=#000000;" parent="1" edge="1">
            <mxGeometry width="50" height="50" relative="1" as="geometry">
              <mxPoint x="238" y="1320" as="sourcePoint" />
              <mxPoint x="1040" y="1318" as="targetPoint" />
            </mxGeometry>
          </mxCell>
        </object>
        <object label="Redundancy&#10;Plausibility Check" Resources="2" Knowledge="2" Location="0" id="Ix9G6hSQ4KYSyDZbYxxm-44">
          <ag_attributes />
          <ag_computed_attributes />
          <mxCell style="shape=attackgraphs.node;fillColor=#DAE8FC;verticalAlign=top;align=left;" parent="1" vertex="1">
            <mxGeometry x="890" y="1386" width="140" height="70" as="geometry" />
          </mxCell>
        </object>
        <object label="Access Control&#10;Secure Data Storage&#10;Access Restriction&#10;Redundancy&#10;Encryption&#10;Digital Signature&#10;Check physical properties of the fiber optic cable&#10;Plausibility Check" Resources="3" Knowledge="4" Location="0" id="kCRQuWALBWs58FWQ3LFZ-1">
          <ag_attributes />
          <ag_computed_attributes />
          <mxCell style="shape=attackgraphs.node;fillColor=#DAE8FC;verticalAlign=top;" parent="1" vertex="1">
            <mxGeometry x="1057.88" y="1246" width="230" height="160" as="geometry" />
          </mxCell>
        </object>
      </root>
    </mxGraphModel>
  </diagram>
</mxfile>